<svg width="333" height="294" viewBox="0 0 333 294" fill="none" xmlns="http://www.w3.org/2000/svg">
<path d="M116.329 -0.000976562H109.677V6.65131H116.329V-0.000976562Z" fill="white"/>
<path d="M123.04 -0.000976562H116.388V6.65131H123.04V-0.000976562Z" fill="white"/>
<path d="M136.359 -0.000976562H129.707V6.65131H136.359V-0.000976562Z" fill="white"/>
<path d="M149.663 -0.000976562H143.011V6.65131H149.663V-0.000976562Z" fill="white"/>
<path d="M156.315 -0.000976562H149.663V6.65131H156.315V-0.000976562Z" fill="white"/>
<path d="M169.619 -0.000976562H162.967V6.65131H169.619V-0.000976562Z" fill="white"/>
<path d="M176.242 -0.000976562H169.589V6.65131H176.242V-0.000976562Z" fill="white"/>
<path d="M182.879 -0.000976562H176.227V6.65131H182.879V-0.000976562Z" fill="white"/>
<path d="M202.864 -0.000976562H196.212V6.65131H202.864V-0.000976562Z" fill="white"/>
<path d="M116.329 6.65112H109.677V13.3034H116.329V6.65112Z" fill="white"/>
<path d="M129.707 6.65112H123.054V13.3034H129.707V6.65112Z" fill="white"/>
<path d="M142.967 6.65112H136.314V13.3034H142.967V6.65112Z" fill="white"/>
<path d="M149.663 6.65112H143.011V13.3034H149.663V6.65112Z" fill="white"/>
<path d="M156.315 6.65112H149.663V13.3034H156.315V6.65112Z" fill="white"/>
<path d="M169.619 6.65112H162.967V13.3034H169.619V6.65112Z" fill="white"/>
<path d="M176.242 6.65112H169.589V13.3034H176.242V6.65112Z" fill="white"/>
<path d="M182.879 6.65112H176.227V13.3034H182.879V6.65112Z" fill="white"/>
<path d="M189.56 6.65112H182.908V13.3034H189.56V6.65112Z" fill="white"/>
<path d="M196.212 6.65112H189.56V13.3034H196.212V6.65112Z" fill="white"/>
<path d="M209.532 6.65112H202.879V13.3034H209.532V6.65112Z" fill="white"/>
<path d="M116.329 13.3105H109.677V19.9628H116.329V13.3105Z" fill="white"/>
<path d="M123.04 13.3105H116.388V19.9628H123.04V13.3105Z" fill="white"/>
<path d="M129.707 13.3105H123.054V19.9628H129.707V13.3105Z" fill="white"/>
<path d="M136.359 13.3105H129.707V19.9628H136.359V13.3105Z" fill="white"/>
<path d="M142.967 13.3105H136.314V19.9628H142.967V13.3105Z" fill="white"/>
<path d="M149.663 13.3105H143.011V19.9628H149.663V13.3105Z" fill="white"/>
<path d="M156.315 13.3105H149.663V19.9628H156.315V13.3105Z" fill="white"/>
<path d="M169.619 13.3105H162.967V19.9628H169.619V13.3105Z" fill="white"/>
<path d="M189.56 13.3105H182.908V19.9628H189.56V13.3105Z" fill="white"/>
<path d="M196.212 13.3105H189.56V19.9628H196.212V13.3105Z" fill="white"/>
<path d="M202.864 13.3105H196.212V19.9628H202.864V13.3105Z" fill="white"/>
<path d="M216.139 13.3105H209.487V19.9628H216.139V13.3105Z" fill="white"/>
<path d="M222.851 13.3105H216.198V19.9628H222.851V13.3105Z" fill="white"/>
<path d="M123.04 19.9551H116.388V26.6074H123.04V19.9551Z" fill="white"/>
<path d="M129.707 19.9551H123.054V26.6074H129.707V19.9551Z" fill="white"/>
<path d="M136.359 19.9551H129.707V26.6074H136.359V19.9551Z" fill="white"/>
<path d="M156.315 19.9551H149.663V26.6074H156.315V19.9551Z" fill="white"/>
<path d="M169.619 19.9551H162.967V26.6074H169.619V19.9551Z" fill="white"/>
<path d="M176.242 19.9551H169.589V26.6074H176.242V19.9551Z" fill="white"/>
<path d="M196.212 19.9551H189.56V26.6074H196.212V19.9551Z" fill="white"/>
<path d="M222.851 19.9551H216.198V26.6074H222.851V19.9551Z" fill="white"/>
<path d="M116.329 26.6072H109.677V33.2595H116.329V26.6072Z" fill="white"/>
<path d="M129.707 26.6072H123.054V33.2595H129.707V26.6072Z" fill="white"/>
<path d="M149.663 26.6072H143.011V33.2595H149.663V26.6072Z" fill="white"/>
<path d="M162.982 26.6072H156.329V33.2595H162.982V26.6072Z" fill="white"/>
<path d="M169.619 26.6072H162.967V33.2595H169.619V26.6072Z" fill="white"/>
<path d="M189.56 26.6072H182.908V33.2595H189.56V26.6072Z" fill="white"/>
<path d="M202.864 26.6072H196.212V33.2595H202.864V26.6072Z" fill="white"/>
<path d="M209.532 26.6072H202.879V33.2595H209.532V26.6072Z" fill="white"/>
<path d="M149.663 33.259H143.011V39.9113H149.663V33.259Z" fill="white"/>
<path d="M156.315 33.259H149.663V39.9113H156.315V33.259Z" fill="white"/>
<path d="M162.982 33.259H156.329V39.9113H162.982V33.259Z" fill="white"/>
<path d="M169.619 33.259H162.967V39.9113H169.619V33.259Z" fill="white"/>
<path d="M196.212 33.259H189.56V39.9113H196.212V33.259Z" fill="white"/>
<path d="M216.139 33.259H209.487V39.9113H216.139V33.259Z" fill="white"/>
<path d="M222.851 33.259H216.198V39.9113H222.851V33.259Z" fill="white"/>
<path d="M116.329 39.9113H109.677V46.5635H116.329V39.9113Z" fill="white"/>
<path d="M129.707 39.9113H123.054V46.5635H129.707V39.9113Z" fill="white"/>
<path d="M142.967 39.9113H136.314V46.5635H142.967V39.9113Z" fill="white"/>
<path d="M156.315 39.9113H149.663V46.5635H156.315V39.9113Z" fill="white"/>
<path d="M169.619 39.9113H162.967V46.5635H169.619V39.9113Z" fill="white"/>
<path d="M182.879 39.9113H176.227V46.5635H182.879V39.9113Z" fill="white"/>
<path d="M196.212 39.9113H189.56V46.5635H196.212V39.9113Z" fill="white"/>
<path d="M209.532 39.9113H202.879V46.5635H209.532V39.9113Z" fill="white"/>
<path d="M222.851 39.9113H216.198V46.5635H222.851V39.9113Z" fill="white"/>
<path d="M123.04 46.5709H116.388V53.2232H123.04V46.5709Z" fill="white"/>
<path d="M136.359 46.5709H129.707V53.2232H136.359V46.5709Z" fill="white"/>
<path d="M149.663 46.5709H143.011V53.2232H149.663V46.5709Z" fill="white"/>
<path d="M156.315 46.5709H149.663V53.2232H156.315V46.5709Z" fill="white"/>
<path d="M162.982 46.5709H156.329V53.2232H162.982V46.5709Z" fill="white"/>
<path d="M169.619 46.5709H162.967V53.2232H169.619V46.5709Z" fill="white"/>
<path d="M189.56 46.5709H182.908V53.2232H189.56V46.5709Z" fill="white"/>
<path d="M63.1715 53.2153H56.5192V59.8676H63.1715V53.2153Z" fill="white"/>
<path d="M83.1868 53.2153H76.5345V59.8676H83.1868V53.2153Z" fill="white"/>
<path d="M89.7797 53.2153H83.1274V59.8676H89.7797V53.2153Z" fill="white"/>
<path d="M96.4316 53.2153H89.7793V59.8676H96.4316V53.2153Z" fill="white"/>
<path d="M103.025 53.2153H96.3727V59.8676H103.025V53.2153Z" fill="white"/>
<path d="M109.691 53.2153H103.039V59.8676H109.691V53.2153Z" fill="white"/>
<path d="M116.329 53.2153H109.677V59.8676H116.329V53.2153Z" fill="white"/>
<path d="M123.04 53.2153H116.388V59.8676H123.04V53.2153Z" fill="white"/>
<path d="M142.967 53.2153H136.314V59.8676H142.967V53.2153Z" fill="white"/>
<path d="M156.315 53.2153H149.663V59.8676H156.315V53.2153Z" fill="white"/>
<path d="M176.242 53.2153H169.589V59.8676H176.242V53.2153Z" fill="white"/>
<path d="M189.56 53.2153H182.908V59.8676H189.56V53.2153Z" fill="white"/>
<path d="M196.212 53.2153H189.56V59.8676H196.212V53.2153Z" fill="white"/>
<path d="M229.458 53.2153H222.806V59.8676H229.458V53.2153Z" fill="white"/>
<path d="M249.429 53.2153H242.777V59.8676H249.429V53.2153Z" fill="white"/>
<path d="M262.719 53.2153H256.066V59.8676H262.719V53.2153Z" fill="white"/>
<path d="M269.4 53.2153H262.748V59.8676H269.4V53.2153Z" fill="white"/>
<path d="M276.007 53.2153H269.355V59.8676H276.007V53.2153Z" fill="white"/>
<path d="M63.1715 59.875H56.5192V66.5273H63.1715V59.875Z" fill="white"/>
<path d="M76.4753 59.875H69.823V66.5273H76.4753V59.875Z" fill="white"/>
<path d="M116.329 59.875H109.677V66.5273H116.329V59.875Z" fill="white"/>
<path d="M123.04 59.875H116.388V66.5273H123.04V59.875Z" fill="white"/>
<path d="M129.707 59.875H123.054V66.5273H129.707V59.875Z" fill="white"/>
<path d="M136.359 59.875H129.707V66.5273H136.359V59.875Z" fill="white"/>
<path d="M149.663 59.875H143.011V66.5273H149.663V59.875Z" fill="white"/>
<path d="M156.315 59.875H149.663V66.5273H156.315V59.875Z" fill="white"/>
<path d="M162.982 59.875H156.329V66.5273H162.982V59.875Z" fill="white"/>
<path d="M182.879 59.875H176.227V66.5273H182.879V59.875Z" fill="white"/>
<path d="M189.56 59.875H182.908V66.5273H189.56V59.875Z" fill="white"/>
<path d="M202.864 59.875H196.212V66.5273H202.864V59.875Z" fill="white"/>
<path d="M209.532 59.875H202.879V66.5273H209.532V59.875Z" fill="white"/>
<path d="M216.139 59.875H209.487V66.5273H216.139V59.875Z" fill="white"/>
<path d="M249.429 59.875H242.777V66.5273H249.429V59.875Z" fill="white"/>
<path d="M256.051 59.875H249.399V66.5273H256.051V59.875Z" fill="white"/>
<path d="M262.719 59.875H256.066V66.5273H262.719V59.875Z" fill="white"/>
<path d="M63.1715 66.5266H56.5192V73.1789H63.1715V66.5266Z" fill="white"/>
<path d="M69.7789 66.527H63.1266V73.1793H69.7789V66.527Z" fill="white"/>
<path d="M76.4753 66.527H69.823V73.1793H76.4753V66.527Z" fill="white"/>
<path d="M83.187 66.5266H76.5347V73.1789H83.187V66.5266Z" fill="white"/>
<path d="M89.7797 66.527H83.1274V73.1793H89.7797V66.527Z" fill="white"/>
<path d="M96.4316 66.527H89.7793V73.1793H96.4316V66.527Z" fill="white"/>
<path d="M103.025 66.527H96.3727V73.1793H103.025V66.527Z" fill="white"/>
<path d="M116.329 66.527H109.677V73.1793H116.329V66.527Z" fill="white"/>
<path d="M136.359 66.527H129.707V73.1793H136.359V66.527Z" fill="white"/>
<path d="M149.663 66.527H143.011V73.1793H149.663V66.527Z" fill="white"/>
<path d="M162.982 66.527H156.329V73.1793H162.982V66.527Z" fill="white"/>
<path d="M176.242 66.5266H169.589V73.1789H176.242V66.5266Z" fill="white"/>
<path d="M209.532 66.527H202.879V73.1793H209.532V66.527Z" fill="white"/>
<path d="M216.139 66.527H209.487V73.1793H216.139V66.527Z" fill="white"/>
<path d="M236.11 66.527H229.458V73.1793H236.11V66.527Z" fill="white"/>
<path d="M249.429 66.527H242.777V73.1793H249.429V66.527Z" fill="white"/>
<path d="M256.051 66.527H249.399V73.1793H256.051V66.527Z" fill="white"/>
<path d="M262.719 66.527H256.066V73.1793H262.719V66.527Z" fill="white"/>
<path d="M269.4 66.527H262.748V73.1793H269.4V66.527Z" fill="white"/>
<path d="M276.007 66.527H269.355V73.1793H276.007V66.527Z" fill="white"/>
<path d="M69.7789 73.1791H63.1266V79.8314H69.7789V73.1791Z" fill="white"/>
<path d="M89.7797 73.1791H83.1274V79.8314H89.7797V73.1791Z" fill="white"/>
<path d="M96.4316 73.1791H89.7793V79.8314H96.4316V73.1791Z" fill="white"/>
<path d="M109.691 73.1791H103.039V79.8314H109.691V73.1791Z" fill="white"/>
<path d="M116.329 73.1791H109.677V79.8314H116.329V73.1791Z" fill="white"/>
<path d="M129.707 73.1791H123.054V79.8314H129.707V73.1791Z" fill="white"/>
<path d="M136.359 73.1791H129.707V79.8314H136.359V73.1791Z" fill="white"/>
<path d="M142.967 73.1791H136.314V79.8314H142.967V73.1791Z" fill="white"/>
<path d="M149.663 73.1791H143.011V79.8314H149.663V73.1791Z" fill="white"/>
<path d="M162.982 73.1791H156.329V79.8314H162.982V73.1791Z" fill="white"/>
<path d="M169.619 73.1791H162.967V79.8314H169.619V73.1791Z" fill="white"/>
<path d="M176.242 73.1791H169.589V79.8314H176.242V73.1791Z" fill="white"/>
<path d="M182.879 73.1791H176.227V79.8314H182.879V73.1791Z" fill="white"/>
<path d="M189.56 73.1791H182.908V79.8314H189.56V73.1791Z" fill="white"/>
<path d="M216.139 73.1791H209.487V79.8314H216.139V73.1791Z" fill="white"/>
<path d="M229.458 73.1791H222.806V79.8314H229.458V73.1791Z" fill="white"/>
<path d="M242.807 73.1791H236.155V79.8314H242.807V73.1791Z" fill="white"/>
<path d="M262.719 73.1791H256.066V79.8314H262.719V73.1791Z" fill="white"/>
<path d="M269.4 73.1791H262.748V79.8314H269.4V73.1791Z" fill="white"/>
<path d="M276.007 73.1791H269.355V79.8314H276.007V73.1791Z" fill="white"/>
<path d="M63.1715 79.8311H56.5192V86.4833H63.1715V79.8311Z" fill="white"/>
<path d="M69.7789 79.8311H63.1266V86.4833H69.7789V79.8311Z" fill="white"/>
<path d="M76.4753 79.8311H69.823V86.4833H76.4753V79.8311Z" fill="white"/>
<path d="M83.187 79.8311H76.5347V86.4833H83.187V79.8311Z" fill="white"/>
<path d="M103.025 79.8311H96.3727V86.4833H103.025V79.8311Z" fill="white"/>
<path d="M116.329 79.8311H109.677V86.4833H116.329V79.8311Z" fill="white"/>
<path d="M129.707 79.8311H123.054V86.4833H129.707V79.8311Z" fill="white"/>
<path d="M136.359 79.8311H129.707V86.4833H136.359V79.8311Z" fill="white"/>
<path d="M149.663 79.8311H143.011V86.4833H149.663V79.8311Z" fill="white"/>
<path d="M162.982 79.8311H156.329V86.4833H162.982V79.8311Z" fill="white"/>
<path d="M169.619 79.8311H162.967V86.4833H169.619V79.8311Z" fill="white"/>
<path d="M182.879 79.8311H176.227V86.4833H182.879V79.8311Z" fill="white"/>
<path d="M189.56 79.8311H182.908V86.4833H189.56V79.8311Z" fill="white"/>
<path d="M196.212 79.8311H189.56V86.4833H196.212V79.8311Z" fill="white"/>
<path d="M222.851 79.8311H216.198V86.4833H222.851V79.8311Z" fill="white"/>
<path d="M236.11 79.8311H229.458V86.4833H236.11V79.8311Z" fill="white"/>
<path d="M63.1715 86.4756H56.5192V93.1279H63.1715V86.4756Z" fill="white"/>
<path d="M76.4753 86.4757H69.823V93.128H76.4753V86.4757Z" fill="white"/>
<path d="M89.7797 86.4757H83.1274V93.128H89.7797V86.4757Z" fill="white"/>
<path d="M96.4316 86.4757H89.7793V93.128H96.4316V86.4757Z" fill="white"/>
<path d="M136.359 86.4757H129.707V93.128H136.359V86.4757Z" fill="white"/>
<path d="M142.967 86.4757H136.314V93.128H142.967V86.4757Z" fill="white"/>
<path d="M149.663 86.4757H143.011V93.128H149.663V86.4757Z" fill="white"/>
<path d="M156.315 86.4757H149.663V93.128H156.315V86.4757Z" fill="white"/>
<path d="M182.879 86.4757H176.227V93.128H182.879V86.4757Z" fill="white"/>
<path d="M209.532 86.4757H202.879V93.128H209.532V86.4757Z" fill="white"/>
<path d="M216.139 86.4757H209.487V93.128H216.139V86.4757Z" fill="white"/>
<path d="M242.807 86.4757H236.155V93.128H242.807V86.4757Z" fill="white"/>
<path d="M69.7789 93.1351H63.1266V99.7874H69.7789V93.1351Z" fill="white"/>
<path d="M76.4753 93.1351H69.823V99.7874H76.4753V93.1351Z" fill="white"/>
<path d="M83.187 93.1355H76.5347V99.7878H83.187V93.1355Z" fill="white"/>
<path d="M89.7797 93.1351H83.1274V99.7874H89.7797V93.1351Z" fill="white"/>
<path d="M103.025 93.1351H96.3727V99.7874H103.025V93.1351Z" fill="white"/>
<path d="M116.329 93.1351H109.677V99.7874H116.329V93.1351Z" fill="white"/>
<path d="M123.04 93.1351H116.388V99.7874H123.04V93.1351Z" fill="white"/>
<path d="M136.359 93.1351H129.707V99.7874H136.359V93.1351Z" fill="white"/>
<path d="M142.967 93.1351H136.314V99.7874H142.967V93.1351Z" fill="white"/>
<path d="M162.982 93.1351H156.329V99.7874H162.982V93.1351Z" fill="white"/>
<path d="M169.619 93.1351H162.967V99.7874H169.619V93.1351Z" fill="white"/>
<path d="M176.242 93.1355H169.589V99.7878H176.242V93.1355Z" fill="white"/>
<path d="M182.879 93.1351H176.227V99.7874H182.879V93.1351Z" fill="white"/>
<path d="M189.56 93.1351H182.908V99.7874H189.56V93.1351Z" fill="white"/>
<path d="M202.864 93.1351H196.212V99.7874H202.864V93.1351Z" fill="white"/>
<path d="M209.532 93.1351H202.879V99.7874H209.532V93.1351Z" fill="white"/>
<path d="M236.11 93.1351H229.458V99.7874H236.11V93.1351Z" fill="white"/>
<path d="M262.719 93.1351H256.066V99.7874H262.719V93.1351Z" fill="white"/>
<path d="M63.1715 99.7802H56.5192V106.432H63.1715V99.7802Z" fill="white"/>
<path d="M76.4753 99.7798H69.823V106.432H76.4753V99.7798Z" fill="white"/>
<path d="M109.691 99.7798H103.039V106.432H109.691V99.7798Z" fill="white"/>
<path d="M116.329 99.7798H109.677V106.432H116.329V99.7798Z" fill="white"/>
<path d="M123.04 99.7798H116.388V106.432H123.04V99.7798Z" fill="white"/>
<path d="M129.707 99.7798H123.054V106.432H129.707V99.7798Z" fill="white"/>
<path d="M142.967 99.7874H136.314V106.44H142.967V99.7874Z" fill="white"/>
<path d="M149.663 99.7798H143.011V106.432H149.663V99.7798Z" fill="white"/>
<path d="M156.315 99.7798H149.663V106.432H156.315V99.7798Z" fill="white"/>
<path d="M189.56 99.7798H182.908V106.432H189.56V99.7798Z" fill="white"/>
<path d="M196.212 99.7798H189.56V106.432H196.212V99.7798Z" fill="white"/>
<path d="M216.139 99.7798H209.487V106.432H216.139V99.7798Z" fill="white"/>
<path d="M229.458 99.7798H222.806V106.432H229.458V99.7798Z" fill="white"/>
<path d="M242.807 99.7798H236.155V106.432H242.807V99.7798Z" fill="white"/>
<path d="M256.051 99.7874H249.399V106.44H256.051V99.7874Z" fill="white"/>
<path d="M262.719 99.7798H256.066V106.432H262.719V99.7798Z" fill="white"/>
<path d="M276.007 99.7798H269.355V106.432H276.007V99.7798Z" fill="white"/>
<path d="M83.1868 106.432H76.5345V113.084H83.1868V106.432Z" fill="white"/>
<path d="M96.4316 106.432H89.7793V113.084H96.4316V106.432Z" fill="white"/>
<path d="M103.025 106.432H96.3727V113.084H103.025V106.432Z" fill="white"/>
<path d="M129.707 106.432H123.054V113.084H129.707V106.432Z" fill="white"/>
<path d="M136.359 106.439H129.707V113.092H136.359V106.439Z" fill="white"/>
<path d="M209.532 106.439H202.879V113.092H209.532V106.439Z" fill="white"/>
<path d="M222.851 106.432H216.198V113.084H222.851V106.432Z" fill="white"/>
<path d="M229.458 106.432H222.806V113.084H229.458V106.432Z" fill="white"/>
<path d="M236.11 106.432H229.458V113.084H236.11V106.432Z" fill="white"/>
<path d="M242.807 106.432H236.155V113.084H242.807V106.432Z" fill="white"/>
<path d="M249.429 106.432H242.777V113.084H249.429V106.432Z" fill="white"/>
<path d="M76.4753 113.076H69.823V119.729H76.4753V113.076Z" fill="white"/>
<path d="M83.1868 113.076H76.5345V119.729H83.1868V113.076Z" fill="white"/>
<path d="M109.691 113.076H103.039V119.729H109.691V113.076Z" fill="white"/>
<path d="M149.663 113.076H143.011V119.729H149.663V113.076Z" fill="white"/>
<path d="M162.982 113.076H156.329V119.729H162.982V113.076Z" fill="white"/>
<path d="M182.879 113.076H176.227V119.729H182.879V113.076Z" fill="white"/>
<path d="M189.56 113.076H182.908V119.729H189.56V113.076Z" fill="white"/>
<path d="M196.212 113.076H189.56V119.729H196.212V113.076Z" fill="white"/>
<path d="M222.851 113.076H216.198V119.729H222.851V113.076Z" fill="white"/>
<path d="M236.11 113.076H229.458V119.729H236.11V113.076Z" fill="white"/>
<path d="M249.429 113.076H242.777V119.729H249.429V113.076Z" fill="white"/>
<path d="M262.719 113.076H256.066V119.729H262.719V113.076Z" fill="white"/>
<path d="M276.007 113.076H269.355V119.729H276.007V113.076Z" fill="white"/>
<path d="M69.7789 119.743H63.1266V126.396H69.7789V119.743Z" fill="white"/>
<path d="M89.7797 119.743H83.1274V126.396H89.7797V119.743Z" fill="white"/>
<path d="M103.025 119.743H96.3727V126.396H103.025V119.743Z" fill="white"/>
<path d="M116.329 119.743H109.677V126.396H116.329V119.743Z" fill="white"/>
<path d="M129.707 119.743H123.054V126.396H129.707V119.743Z" fill="white"/>
<path d="M136.359 119.743H129.707V126.396H136.359V119.743Z" fill="white"/>
<path d="M162.982 119.743H156.329V126.396H162.982V119.743Z" fill="white"/>
<path d="M189.56 119.743H182.908V126.396H189.56V119.743Z" fill="white"/>
<path d="M196.212 119.743H189.56V126.396H196.212V119.743Z" fill="white"/>
<path d="M209.532 119.743H202.879V126.396H209.532V119.743Z" fill="white"/>
<path d="M216.139 119.743H209.487V126.396H216.139V119.743Z" fill="white"/>
<path d="M222.851 119.743H216.198V126.396H222.851V119.743Z" fill="white"/>
<path d="M229.458 119.743H222.806V126.396H229.458V119.743Z" fill="white"/>
<path d="M236.11 119.743H229.458V126.396H236.11V119.743Z" fill="white"/>
<path d="M242.807 119.743H236.155V126.396H242.807V119.743Z" fill="white"/>
<path d="M256.051 119.736H249.399V126.388H256.051V119.736Z" fill="white"/>
<path d="M262.719 119.743H256.066V126.396H262.719V119.743Z" fill="white"/>
<path d="M269.4 119.743H262.748V126.396H269.4V119.743Z" fill="white"/>
<path d="M276.007 119.743H269.355V126.396H276.007V119.743Z" fill="white"/>
<path d="M69.7789 126.396H63.1266V133.048H69.7789V126.396Z" fill="white"/>
<path d="M76.4753 126.396H69.823V133.048H76.4753V126.396Z" fill="white"/>
<path d="M83.1868 126.396H76.5345V133.048H83.1868V126.396Z" fill="white"/>
<path d="M109.691 126.396H103.039V133.048H109.691V126.396Z" fill="white"/>
<path d="M129.707 126.396H123.054V133.048H129.707V126.396Z" fill="white"/>
<path d="M156.315 126.396H149.663V133.048H156.315V126.396Z" fill="white"/>
<path d="M169.619 126.396H162.967V133.048H169.619V126.396Z" fill="white"/>
<path d="M182.879 126.396H176.227V133.048H182.879V126.396Z" fill="white"/>
<path d="M222.851 126.396H216.198V133.048H222.851V126.396Z" fill="white"/>
<path d="M229.458 126.396H222.806V133.048H229.458V126.396Z" fill="white"/>
<path d="M249.429 126.396H242.777V133.048H249.429V126.396Z" fill="white"/>
<path d="M256.051 126.396H249.399V133.048H256.051V126.396Z" fill="white"/>
<path d="M262.719 126.396H256.066V133.048H262.719V126.396Z" fill="white"/>
<path d="M69.7789 133.04H63.1266V139.692H69.7789V133.04Z" fill="white"/>
<path d="M76.4753 133.04H69.823V139.692H76.4753V133.04Z" fill="white"/>
<path d="M103.025 133.04H96.3727V139.692H103.025V133.04Z" fill="white"/>
<path d="M109.691 133.04H103.039V139.692H109.691V133.04Z" fill="white"/>
<path d="M116.329 133.04H109.677V139.692H116.329V133.04Z" fill="white"/>
<path d="M123.04 133.04H116.388V139.692H123.04V133.04Z" fill="white"/>
<path d="M129.707 133.04H123.054V139.692H129.707V133.04Z" fill="white"/>
<path d="M149.663 133.04H143.011V139.692H149.663V133.04Z" fill="white"/>
<path d="M162.982 133.04H156.329V139.692H162.982V133.04Z" fill="white"/>
<path d="M169.619 133.04H162.967V139.692H169.619V133.04Z" fill="white"/>
<path d="M176.242 133.04H169.589V139.692H176.242V133.04Z" fill="white"/>
<path d="M196.212 133.04H189.56V139.692H196.212V133.04Z" fill="white"/>
<path d="M222.851 133.04H216.198V139.692H222.851V133.04Z" fill="white"/>
<path d="M242.807 133.04H236.155V139.692H242.807V133.04Z" fill="white"/>
<path d="M256.051 133.04H249.399V139.692H256.051V133.04Z" fill="white"/>
<path d="M276.007 133.04H269.355V139.692H276.007V133.04Z" fill="white"/>
<path d="M63.1715 139.699H56.5192V146.352H63.1715V139.699Z" fill="white"/>
<path d="M89.7797 139.699H83.1274V146.352H89.7797V139.699Z" fill="white"/>
<path d="M96.4316 139.699H89.7793V146.352H96.4316V139.699Z" fill="white"/>
<path d="M116.329 139.699H109.677V146.352H116.329V139.699Z" fill="white"/>
<path d="M123.04 139.699H116.388V146.352H123.04V139.699Z" fill="white"/>
<path d="M136.359 139.699H129.707V146.352H136.359V139.699Z" fill="white"/>
<path d="M142.967 139.699H136.314V146.352H142.967V139.699Z" fill="white"/>
<path d="M162.982 139.699H156.329V146.352H162.982V139.699Z" fill="white"/>
<path d="M176.242 139.699H169.589V146.352H176.242V139.699Z" fill="white"/>
<path d="M182.879 139.699H176.227V146.352H182.879V139.699Z" fill="white"/>
<path d="M189.56 139.699H182.908V146.352H189.56V139.699Z" fill="white"/>
<path d="M209.532 139.699H202.879V146.352H209.532V139.699Z" fill="white"/>
<path d="M216.139 139.699H209.487V146.352H216.139V139.699Z" fill="white"/>
<path d="M229.458 139.699H222.806V146.352H229.458V139.699Z" fill="white"/>
<path d="M236.11 139.699H229.458V146.352H236.11V139.699Z" fill="white"/>
<path d="M249.429 139.699H242.777V146.352H249.429V139.699Z" fill="white"/>
<path d="M256.051 139.699H249.399V146.352H256.051V139.699Z" fill="white"/>
<path d="M262.719 139.699H256.066V146.352H262.719V139.699Z" fill="white"/>
<path d="M63.1715 146.344H56.5192V152.997H63.1715V146.344Z" fill="white"/>
<path d="M83.1868 146.351H76.5345V153.004H83.1868V146.351Z" fill="white"/>
<path d="M89.7797 146.351H83.1274V153.004H89.7797V146.351Z" fill="white"/>
<path d="M103.025 146.351H96.3727V153.004H103.025V146.351Z" fill="white"/>
<path d="M109.691 146.351H103.039V153.004H109.691V146.351Z" fill="white"/>
<path d="M123.04 146.351H116.388V153.004H123.04V146.351Z" fill="white"/>
<path d="M142.967 146.351H136.314V153.004H142.967V146.351Z" fill="white"/>
<path d="M149.663 146.351H143.011V153.004H149.663V146.351Z" fill="white"/>
<path d="M162.982 146.351H156.329V153.004H162.982V146.351Z" fill="white"/>
<path d="M169.619 146.351H162.967V153.004H169.619V146.351Z" fill="white"/>
<path d="M182.879 146.351H176.227V153.004H182.879V146.351Z" fill="white"/>
<path d="M202.864 146.351H196.212V153.004H202.864V146.351Z" fill="white"/>
<path d="M209.532 146.344H202.879V152.997H209.532V146.344Z" fill="white"/>
<path d="M216.139 146.351H209.487V153.004H216.139V146.351Z" fill="white"/>
<path d="M236.11 146.351H229.458V153.004H236.11V146.351Z" fill="white"/>
<path d="M242.807 146.351H236.155V153.004H242.807V146.351Z" fill="white"/>
<path d="M256.051 146.351H249.399V153.004H256.051V146.351Z" fill="white"/>
<path d="M262.719 146.351H256.066V153.004H262.719V146.351Z" fill="white"/>
<path d="M269.4 146.351H262.748V153.004H269.4V146.351Z" fill="white"/>
<path d="M276.007 146.351H269.355V153.004H276.007V146.351Z" fill="white"/>
<path d="M63.1715 152.996H56.5192V159.648H63.1715V152.996Z" fill="white"/>
<path d="M76.4753 152.996H69.823V159.648H76.4753V152.996Z" fill="white"/>
<path d="M83.1868 152.996H76.5345V159.648H83.1868V152.996Z" fill="white"/>
<path d="M89.7797 152.996H83.1274V159.648H89.7797V152.996Z" fill="white"/>
<path d="M96.4316 152.996H89.7793V159.648H96.4316V152.996Z" fill="white"/>
<path d="M123.04 152.996H116.388V159.648H123.04V152.996Z" fill="white"/>
<path d="M129.707 152.996H123.054V159.648H129.707V152.996Z" fill="white"/>
<path d="M142.967 152.996H136.314V159.648H142.967V152.996Z" fill="white"/>
<path d="M156.315 152.996H149.663V159.648H156.315V152.996Z" fill="white"/>
<path d="M176.242 152.996H169.589V159.648H176.242V152.996Z" fill="white"/>
<path d="M209.532 152.996H202.879V159.648H209.532V152.996Z" fill="white"/>
<path d="M222.851 152.996H216.198V159.648H222.851V152.996Z" fill="white"/>
<path d="M229.458 152.996H222.806V159.648H229.458V152.996Z" fill="white"/>
<path d="M242.807 152.996H236.155V159.648H242.807V152.996Z" fill="white"/>
<path d="M262.719 152.996H256.066V159.648H262.719V152.996Z" fill="white"/>
<path d="M269.4 152.996H262.748V159.648H269.4V152.996Z" fill="white"/>
<path d="M276.007 152.996H269.355V159.648H276.007V152.996Z" fill="white"/>
<path d="M63.1715 159.648H56.5192V166.301H63.1715V159.648Z" fill="white"/>
<path d="M69.7789 159.648H63.1266V166.301H69.7789V159.648Z" fill="white"/>
<path d="M76.4753 159.648H69.823V166.301H76.4753V159.648Z" fill="white"/>
<path d="M89.7797 159.648H83.1274V166.301H89.7797V159.648Z" fill="white"/>
<path d="M96.4316 159.648H89.7793V166.301H96.4316V159.648Z" fill="white"/>
<path d="M103.025 159.648H96.3727V166.301H103.025V159.648Z" fill="white"/>
<path d="M109.691 159.648H103.039V166.301H109.691V159.648Z" fill="white"/>
<path d="M116.329 159.648H109.677V166.301H116.329V159.648Z" fill="white"/>
<path d="M136.359 159.648H129.707V166.301H136.359V159.648Z" fill="white"/>
<path d="M142.967 159.648H136.314V166.301H142.967V159.648Z" fill="white"/>
<path d="M156.315 159.648H149.663V166.301H156.315V159.648Z" fill="white"/>
<path d="M196.212 159.648H189.56V166.301H196.212V159.648Z" fill="white"/>
<path d="M216.139 159.648H209.487V166.301H216.139V159.648Z" fill="white"/>
<path d="M222.851 159.648H216.198V166.301H222.851V159.648Z" fill="white"/>
<path d="M229.458 159.648H222.806V166.301H229.458V159.648Z" fill="white"/>
<path d="M236.11 159.648H229.458V166.301H236.11V159.648Z" fill="white"/>
<path d="M242.807 159.648H236.155V166.301H242.807V159.648Z" fill="white"/>
<path d="M249.429 159.648H242.777V166.301H249.429V159.648Z" fill="white"/>
<path d="M256.051 159.648H249.399V166.301H256.051V159.648Z" fill="white"/>
<path d="M269.4 159.648H262.748V166.301H269.4V159.648Z" fill="white"/>
<path d="M116.329 166.315H109.677V172.967H116.329V166.315Z" fill="white"/>
<path d="M136.359 166.315H129.707V172.967H136.359V166.315Z" fill="white"/>
<path d="M142.967 166.315H136.314V172.967H142.967V166.315Z" fill="white"/>
<path d="M149.663 166.315H143.011V172.967H149.663V166.315Z" fill="white"/>
<path d="M156.315 166.315H149.663V172.967H156.315V166.315Z" fill="white"/>
<path d="M162.982 166.315H156.329V172.967H162.982V166.315Z" fill="white"/>
<path d="M169.619 166.315H162.967V172.967H169.619V166.315Z" fill="white"/>
<path d="M176.242 166.315H169.589V172.967H176.242V166.315Z" fill="white"/>
<path d="M182.879 166.315H176.227V172.967H182.879V166.315Z" fill="white"/>
<path d="M196.212 166.315H189.56V172.967H196.212V166.315Z" fill="white"/>
<path d="M216.139 166.315H209.487V172.967H216.139V166.315Z" fill="white"/>
<path d="M222.851 166.315H216.198V172.967H222.851V166.315Z" fill="white"/>
<path d="M249.429 166.315H242.777V172.967H249.429V166.315Z" fill="white"/>
<path d="M262.719 166.315H256.066V172.967H262.719V166.315Z" fill="white"/>
<path d="M269.4 166.315H262.748V172.967H269.4V166.315Z" fill="white"/>
<path d="M116.329 172.967H109.677V179.619H116.329V172.967Z" fill="white"/>
<path d="M136.359 172.96H129.707V179.612H136.359V172.96Z" fill="white"/>
<path d="M142.967 172.967H136.314V179.619H142.967V172.967Z" fill="white"/>
<path d="M149.663 172.967H143.011V179.619H149.663V172.967Z" fill="white"/>
<path d="M156.315 172.967H149.663V179.619H156.315V172.967Z" fill="white"/>
<path d="M162.982 172.967H156.329V179.619H162.982V172.967Z" fill="white"/>
<path d="M169.619 172.967H162.967V179.619H169.619V172.967Z" fill="white"/>
<path d="M182.879 172.967H176.227V179.619H182.879V172.967Z" fill="white"/>
<path d="M189.56 172.967H182.908V179.619H189.56V172.967Z" fill="white"/>
<path d="M196.212 172.967H189.56V179.619H196.212V172.967Z" fill="white"/>
<path d="M202.864 172.967H196.212V179.619H202.864V172.967Z" fill="white"/>
<path d="M216.139 172.967H209.487V179.619H216.139V172.967Z" fill="white"/>
<path d="M222.851 172.967H216.198V179.619H222.851V172.967Z" fill="white"/>
<path d="M236.11 172.967H229.458V179.619H236.11V172.967Z" fill="white"/>
<path d="M249.429 172.967H242.777V179.619H249.429V172.967Z" fill="white"/>
<path d="M262.719 172.967H256.066V179.619H262.719V172.967Z" fill="white"/>
<path d="M116.329 179.619H109.677V186.272H116.329V179.619Z" fill="white"/>
<path d="M129.707 179.619H123.054V186.272H129.707V179.619Z" fill="white"/>
<path d="M149.663 179.619H143.011V186.272H149.663V179.619Z" fill="white"/>
<path d="M182.879 179.619H176.227V186.272H182.879V179.619Z" fill="white"/>
<path d="M189.56 179.619H182.908V186.272H189.56V179.619Z" fill="white"/>
<path d="M196.212 179.619H189.56V186.272H196.212V179.619Z" fill="white"/>
<path d="M216.139 179.619H209.487V186.272H216.139V179.619Z" fill="white"/>
<path d="M222.851 179.619H216.198V186.272H222.851V179.619Z" fill="white"/>
<path d="M249.429 179.619H242.777V186.272H249.429V179.619Z" fill="white"/>
<path d="M256.051 179.619H249.399V186.272H256.051V179.619Z" fill="white"/>
<path d="M262.719 179.619H256.066V186.272H262.719V179.619Z" fill="white"/>
<path d="M269.4 179.619H262.748V186.272H269.4V179.619Z" fill="white"/>
<path d="M276.007 179.619H269.355V186.272H276.007V179.619Z" fill="white"/>
<path d="M116.329 186.264H109.677V192.916H116.329V186.264Z" fill="white"/>
<path d="M123.04 186.264H116.388V192.916H123.04V186.264Z" fill="white"/>
<path d="M129.707 186.264H123.054V192.916H129.707V186.264Z" fill="white"/>
<path d="M136.359 186.264H129.707V192.916H136.359V186.264Z" fill="white"/>
<path d="M142.967 186.264H136.314V192.916H142.967V186.264Z" fill="white"/>
<path d="M156.315 186.264H149.663V192.916H156.315V186.264Z" fill="white"/>
<path d="M196.212 186.264H189.56V192.916H196.212V186.264Z" fill="white"/>
<path d="M209.532 186.264H202.879V192.916H209.532V186.264Z" fill="white"/>
<path d="M216.139 186.264H209.487V192.916H216.139V186.264Z" fill="white"/>
<path d="M222.851 186.264H216.198V192.916H222.851V186.264Z" fill="white"/>
<path d="M229.458 186.264H222.806V192.916H229.458V186.264Z" fill="white"/>
<path d="M236.11 186.264H229.458V192.916H236.11V186.264Z" fill="white"/>
<path d="M242.807 186.264H236.155V192.916H242.807V186.264Z" fill="white"/>
<path d="M249.429 186.264H242.777V192.916H249.429V186.264Z" fill="white"/>
<path d="M116.329 192.916H109.677V199.568H116.329V192.916Z" fill="white"/>
<path d="M123.04 192.916H116.388V199.568H123.04V192.916Z" fill="white"/>
<path d="M136.359 192.916H129.707V199.568H136.359V192.916Z" fill="white"/>
<path d="M149.663 192.916H143.011V199.568H149.663V192.916Z" fill="white"/>
<path d="M162.982 192.916H156.329V199.568H162.982V192.916Z" fill="white"/>
<path d="M176.242 192.916H169.589V199.568H176.242V192.916Z" fill="white"/>
<path d="M189.56 192.916H182.908V199.568H189.56V192.916Z" fill="white"/>
<path d="M196.212 192.916H189.56V199.568H196.212V192.916Z" fill="white"/>
<path d="M202.864 192.916H196.212V199.568H202.864V192.916Z" fill="white"/>
<path d="M209.532 192.916H202.879V199.568H209.532V192.916Z" fill="white"/>
<path d="M216.139 192.916H209.487V199.568H216.139V192.916Z" fill="white"/>
<path d="M222.851 192.916H216.198V199.568H222.851V192.916Z" fill="white"/>
<path d="M229.458 192.916H222.806V199.568H229.458V192.916Z" fill="white"/>
<path d="M242.807 192.916H236.155V199.568H242.807V192.916Z" fill="white"/>
<path d="M269.4 192.916H262.748V199.568H269.4V192.916Z" fill="white"/>
<path d="M276.007 192.916H269.355V199.568H276.007V192.916Z" fill="white"/>
<path d="M129.707 199.568H123.054V206.22H129.707V199.568Z" fill="white"/>
<path d="M162.982 199.568H156.329V206.22H162.982V199.568Z" fill="white"/>
<path d="M169.619 199.568H162.967V206.22H169.619V199.568Z" fill="white"/>
<path d="M182.879 199.568H176.227V206.22H182.879V199.568Z" fill="white"/>
<path d="M189.56 199.568H182.908V206.22H189.56V199.568Z" fill="white"/>
<path d="M196.212 199.568H189.56V206.22H196.212V199.568Z" fill="white"/>
<path d="M202.864 199.568H196.212V206.22H202.864V199.568Z" fill="white"/>
<path d="M209.532 199.568H202.879V206.22H209.532V199.568Z" fill="white"/>
<path d="M216.139 199.568H209.487V206.22H216.139V199.568Z" fill="white"/>
<path d="M222.851 199.568H216.198V206.22H222.851V199.568Z" fill="white"/>
<path d="M242.807 199.568H236.155V206.22H242.807V199.568Z" fill="white"/>
<path d="M249.429 199.568H242.777V206.22H249.429V199.568Z" fill="white"/>
<path d="M262.719 199.568H256.066V206.22H262.719V199.568Z" fill="white"/>
<path d="M269.4 199.568H262.748V206.22H269.4V199.568Z" fill="white"/>
<path d="M276.007 199.568H269.355V206.22H276.007V199.568Z" fill="white"/>
<path d="M149.663 206.22H143.011V212.872H149.663V206.22Z" fill="white"/>
<path d="M169.619 206.22H162.967V212.872H169.619V206.22Z" fill="white"/>
<path d="M189.56 206.22H182.908V212.872H189.56V206.22Z" fill="white"/>
<path d="M209.532 206.22H202.879V212.872H209.532V206.22Z" fill="white"/>
<path d="M242.807 206.22H236.155V212.872H242.807V206.22Z" fill="white"/>
<path d="M249.429 206.22H242.777V212.872H249.429V206.22Z" fill="white"/>
<path d="M256.051 206.22H249.399V212.872H256.051V206.22Z" fill="white"/>
<path d="M262.719 206.22H256.066V212.872H262.719V206.22Z" fill="white"/>
<path d="M269.4 206.22H262.748V212.872H269.4V206.22Z" fill="white"/>
<path d="M276.007 206.22H269.355V212.872H276.007V206.22Z" fill="white"/>
<path d="M116.329 212.872H109.677V219.524H116.329V212.872Z" fill="white"/>
<path d="M123.04 212.872H116.388V219.524H123.04V212.872Z" fill="white"/>
<path d="M136.359 212.88H129.707V219.532H136.359V212.88Z" fill="white"/>
<path d="M162.982 212.872H156.329V219.524H162.982V212.872Z" fill="white"/>
<path d="M169.619 212.872H162.967V219.524H169.619V212.872Z" fill="white"/>
<path d="M176.242 212.872H169.589V219.524H176.242V212.872Z" fill="white"/>
<path d="M189.56 212.872H182.908V219.524H189.56V212.872Z" fill="white"/>
<path d="M216.139 212.872H209.487V219.524H216.139V212.872Z" fill="white"/>
<path d="M222.851 212.872H216.198V219.524H222.851V212.872Z" fill="white"/>
<path d="M236.11 212.872H229.458V219.524H236.11V212.872Z" fill="white"/>
<path d="M242.807 212.872H236.155V219.524H242.807V212.872Z" fill="white"/>
<path d="M249.429 212.872H242.777V219.524H249.429V212.872Z" fill="white"/>
<path d="M96.1004 -0.000976562H63.5041H56.5192V6.98393V39.5802V46.5651H63.5041H96.1004H103.085V39.5802V6.98393V-0.000976562H96.1004ZM96.1004 39.5802H63.5041V6.98393H96.1004V39.5802Z" fill="white"/>
<path d="M269.083 -0.000976562H236.486H229.502V6.98393V39.5802V46.5651H236.486H269.083H276.068V39.5802V6.98393V-0.000976562H269.083ZM269.083 39.5802H236.486V6.98393H269.083V39.5802Z" fill="white"/>
<path d="M96.1004 172.968H63.5041H56.5192V179.952V212.549V219.534H63.5041H96.1004H103.085V212.549V179.952V172.968H96.1004ZM96.1004 212.549H63.5041V179.952H96.1004V212.549Z" fill="white"/>
<path d="M89.7799 13.3105H69.823V33.2674H89.7799V13.3105Z" fill="white"/>
<path d="M262.734 13.3105H242.777V33.2674H262.734V13.3105Z" fill="white"/>
<path d="M89.7799 186.264H69.823V206.221H89.7799V186.264Z" fill="white"/>
<path d="M108.665 274.57C108.673 273.911 108.578 273.324 108.379 272.809C108.194 272.294 107.855 271.821 107.362 271.391C106.869 270.96 106.171 270.542 105.268 270.136C104.379 269.715 103.242 269.284 101.855 268.843C100.337 268.356 98.9372 267.82 97.655 267.233C96.3876 266.632 95.2823 265.945 94.3392 265.172C93.3963 264.385 92.667 263.49 92.1515 262.488C91.6361 261.471 91.3862 260.303 91.4017 258.985C91.4171 257.681 91.7021 256.498 92.2566 255.435C92.8259 254.372 93.6204 253.459 94.6402 252.695C95.6748 251.916 96.8904 251.322 98.2869 250.914C99.6836 250.491 101.224 250.289 102.909 250.309C105.282 250.337 107.32 250.8 109.023 251.7C110.741 252.599 112.053 253.794 112.958 255.284C113.878 256.774 114.328 258.413 114.306 260.2L108.836 260.135C108.848 259.081 108.632 258.148 108.187 257.337C107.758 256.512 107.092 255.859 106.189 255.38C105.301 254.901 104.169 254.653 102.792 254.637C101.488 254.621 100.402 254.806 99.533 255.191C98.6641 255.577 98.0133 256.104 97.5806 256.772C97.1479 257.441 96.9265 258.2 96.9165 259.05C96.9094 259.65 97.0421 260.201 97.3145 260.703C97.5871 261.189 98.0065 261.648 98.5728 262.08C99.1392 262.497 99.8523 262.893 100.712 263.27C101.572 263.646 102.586 264.01 103.754 264.36C105.52 264.909 107.058 265.513 108.369 266.173C109.68 266.818 110.77 267.549 111.639 268.365C112.509 269.181 113.157 270.104 113.584 271.135C114.012 272.15 114.218 273.303 114.203 274.592C114.187 275.939 113.901 277.152 113.347 278.229C112.792 279.292 112.005 280.199 110.985 280.948C109.981 281.684 108.773 282.248 107.362 282.642C105.965 283.021 104.411 283.2 102.697 283.18C101.159 283.162 99.6452 282.939 98.156 282.511C96.6814 282.083 95.3412 281.445 94.1353 280.596C92.9296 279.732 91.9753 278.666 91.2725 277.398C90.5698 276.115 90.2284 274.624 90.2485 272.925L95.7632 272.99C95.751 274.03 95.9163 274.918 96.2592 275.655C96.6167 276.391 97.115 276.998 97.7539 277.474C98.3931 277.936 99.1361 278.282 99.9831 278.511C100.845 278.741 101.766 278.862 102.748 278.874C104.037 278.889 105.115 278.718 105.984 278.362C106.867 278.007 107.532 277.502 107.979 276.848C108.427 276.194 108.655 275.435 108.665 274.57ZM124.404 259.22L124.124 282.993L118.807 282.93L119.087 259.158L124.404 259.22ZM118.809 252.914C118.819 252.108 119.09 251.445 119.624 250.924C120.172 250.388 120.922 250.126 121.874 250.137C122.812 250.148 123.548 250.428 124.084 250.976C124.62 251.51 124.883 252.18 124.873 252.985C124.864 253.776 124.585 254.432 124.037 254.953C123.489 255.474 122.746 255.729 121.809 255.718C120.857 255.707 120.113 255.434 119.577 254.9C119.056 254.367 118.8 253.705 118.809 252.914ZM145.431 259.468L150.242 259.525L149.97 282.639C149.944 284.777 149.469 286.588 148.543 288.071C147.617 289.555 146.337 290.675 144.702 291.432C143.067 292.204 141.18 292.577 139.041 292.552C138.133 292.541 137.124 292.398 136.014 292.121C134.919 291.844 133.854 291.407 132.821 290.809C131.803 290.225 130.955 289.461 130.277 288.515L132.797 285.425C133.635 286.445 134.563 287.196 135.583 287.677C136.603 288.158 137.677 288.405 138.804 288.418C140.02 288.432 141.056 288.218 141.91 287.774C142.78 287.344 143.454 286.7 143.933 285.842C144.412 284.983 144.659 283.931 144.673 282.686L144.884 264.846L145.431 259.468ZM129.138 271.428L129.144 270.967C129.165 269.165 129.404 267.527 129.861 266.053C130.318 264.564 130.963 263.29 131.796 262.23C132.629 261.156 133.635 260.34 134.813 259.783C135.992 259.211 137.321 258.933 138.8 258.951C140.338 258.969 141.646 259.263 142.723 259.832C143.815 260.402 144.721 261.211 145.442 262.259C146.162 263.293 146.719 264.53 147.112 265.971C147.52 267.396 147.816 268.982 148.001 270.727L147.983 272.2C147.773 273.896 147.432 275.445 146.962 276.846C146.491 278.247 145.876 279.455 145.117 280.472C144.358 281.488 143.426 282.269 142.321 282.812C141.23 283.356 139.945 283.619 138.466 283.602C137.016 283.585 135.708 283.269 134.544 282.655C133.393 282.04 132.407 281.186 131.585 280.093C130.778 278.999 130.163 277.717 129.741 276.247C129.319 274.763 129.118 273.156 129.138 271.428ZM134.439 271.029L134.434 271.49C134.421 272.574 134.511 273.586 134.705 274.526C134.914 275.466 135.234 276.297 135.665 277.02C136.111 277.729 136.675 278.292 137.359 278.71C138.057 279.114 138.882 279.322 139.835 279.333C141.08 279.348 142.101 279.096 142.898 278.578C143.71 278.06 144.333 277.357 144.769 276.469C145.219 275.566 145.538 274.559 145.727 273.447L145.774 269.471C145.696 268.605 145.523 267.798 145.253 267.047C144.998 266.297 144.647 265.641 144.2 265.079C143.752 264.503 143.186 264.056 142.502 263.741C141.817 263.41 141.006 263.24 140.068 263.229C139.116 263.217 138.286 263.413 137.578 263.815C136.871 264.216 136.285 264.773 135.823 265.486C135.375 266.198 135.035 267.029 134.805 267.979C134.574 268.928 134.452 269.945 134.439 271.029ZM160.926 264.727L160.706 283.425L155.411 283.362L155.691 259.589L160.679 259.648L160.926 264.727ZM159.912 270.648L158.198 270.606C158.233 268.922 158.485 267.379 158.956 265.978C159.441 264.578 160.1 263.377 160.932 262.376C161.779 261.375 162.784 260.611 163.948 260.082C165.111 259.539 166.404 259.276 167.824 259.293C168.967 259.306 169.998 259.48 170.917 259.813C171.85 260.132 172.643 260.646 173.294 261.357C173.959 262.068 174.461 262.99 174.799 264.122C175.138 265.239 175.297 266.611 175.278 268.236L175.097 283.594L169.78 283.532L169.961 268.152C169.975 267.009 169.817 266.107 169.488 265.443C169.173 264.766 168.703 264.284 168.076 263.998C167.465 263.698 166.697 263.543 165.775 263.532C164.867 263.521 164.051 263.702 163.329 264.074C162.607 264.447 161.993 264.959 161.487 265.613C160.996 266.266 160.613 267.023 160.34 267.885C160.066 268.746 159.923 269.667 159.912 270.648ZM210.562 252.018L216.055 252.083L215.803 273.461C215.774 275.892 215.223 277.922 214.149 279.55C213.075 281.178 211.625 282.399 209.799 283.213C207.987 284.012 205.968 284.398 203.742 284.372C201.442 284.345 199.397 283.91 197.605 283.069C195.813 282.213 194.407 280.958 193.386 279.305C192.38 277.653 191.891 275.611 191.92 273.179L192.172 251.801L197.665 251.866L197.413 273.244C197.395 274.782 197.643 276.052 198.159 277.054C198.675 278.042 199.413 278.776 200.374 279.256C201.336 279.736 202.475 279.984 203.794 279.999C205.112 280.015 206.25 279.794 207.207 279.336C208.18 278.879 208.935 278.163 209.474 277.188C210.013 276.198 210.292 274.934 210.31 273.396L210.562 252.018ZM226.692 264.997L226.357 293.34L221.062 293.278L221.451 260.365L226.328 260.422L226.692 264.997ZM242.098 272.277L242.092 272.738C242.072 274.467 241.848 276.068 241.42 277.543C241.008 279.003 240.399 280.277 239.595 281.367C238.806 282.441 237.837 283.272 236.687 283.859C235.538 284.446 234.216 284.731 232.722 284.713C231.242 284.696 229.949 284.41 228.843 283.855C227.751 283.285 226.83 282.49 226.08 281.471C225.33 280.451 224.729 279.257 224.276 277.89C223.839 276.508 223.534 274.995 223.363 273.352L223.384 271.573C223.595 269.832 223.936 268.254 224.407 266.838C224.892 265.423 225.522 264.207 226.296 263.191C227.069 262.175 228.009 261.395 229.114 260.851C230.219 260.307 231.504 260.044 232.969 260.061C234.463 260.079 235.785 260.388 236.935 260.987C238.086 261.572 239.05 262.404 239.828 263.482C240.607 264.546 241.185 265.828 241.563 267.326C241.941 268.81 242.119 270.46 242.098 272.277ZM236.797 272.676L236.803 272.214C236.816 271.116 236.725 270.097 236.531 269.157C236.337 268.202 236.025 267.364 235.594 266.641C235.163 265.918 234.606 265.354 233.922 264.951C233.253 264.533 232.442 264.318 231.49 264.307C230.553 264.296 229.745 264.447 229.068 264.762C228.39 265.061 227.821 265.487 227.361 266.038C226.9 266.589 226.541 267.237 226.283 267.981C226.025 268.711 225.84 269.507 225.727 270.37L225.677 274.632C225.841 275.689 226.129 276.659 226.544 277.543C226.958 278.427 227.55 279.137 228.321 279.673C229.105 280.195 230.113 280.464 231.344 280.478C232.296 280.489 233.111 280.294 233.79 279.892C234.468 279.49 235.024 278.932 235.457 278.219C235.905 277.492 236.238 276.654 236.454 275.704C236.67 274.754 236.785 273.745 236.797 272.676Z" fill="white"/>
</svg>
