<svg width="112" height="112" viewBox="0 0 112 112" fill="none" xmlns="http://www.w3.org/2000/svg">
<path d="M29.0332 69.0871C28.7987 68.1789 27.8037 67.7805 27.0843 68.3308C25.7914 69.3268 24.5302 70.0695 23.3102 70.5624C21.5926 71.2545 19.7483 71.6023 17.7804 71.6023C14.5323 71.6023 12.032 70.7582 10.2891 69.0668C8.54302 67.3754 7.67157 65.2147 7.67157 62.5847C7.67157 61.0418 8.00114 59.6306 8.66027 58.3578C9.31941 57.0816 10.1814 56.0587 11.2493 55.2856C12.3172 54.5124 13.5182 53.9317 14.8555 53.5334C15.8379 53.2565 17.3241 52.9898 19.311 52.7332C22.7746 52.2943 25.4587 51.7812 27.3569 51.1937C27.8892 51.0283 28.26 50.5117 28.2727 49.9209C28.2759 49.7251 28.279 49.5867 28.279 49.4955C28.279 47.3213 27.8069 45.7852 26.8594 44.8973C25.5791 43.692 23.6746 43.0877 21.149 43.0877C18.7913 43.0877 17.0484 43.5266 15.9266 44.4078C14.9886 45.1437 14.2566 46.349 13.7242 48.0269C13.5309 48.638 12.9573 49.0128 12.3584 48.9284L9.93734 48.5772C9.17047 48.4658 8.66661 47.6488 8.89477 46.8622C9.33842 45.3092 9.95002 44.0094 10.7327 42.9594C11.7531 41.5853 13.2298 40.5252 15.1597 39.7859C17.0896 39.0431 19.3268 38.6718 21.8715 38.6718C24.4161 38.6718 26.4474 38.9891 28.0255 39.6204C29.6036 40.2551 30.7635 41.0485 31.5081 42.0107C32.2497 42.9695 32.7694 44.1816 33.0673 45.6468C33.2352 46.5583 33.3176 48.1991 33.3176 50.5725V57.6927C33.3176 62.659 33.4253 65.7987 33.6377 67.1154C33.7454 67.7805 33.907 68.4321 34.1225 69.0702C34.4235 69.9581 33.8278 70.8967 32.9405 70.8967H30.4941C29.9807 70.8967 29.5054 70.5692 29.3216 70.056C29.2107 69.7488 29.1124 69.4247 29.0269 69.0938L29.0332 69.0871ZM28.2537 56.9669C28.2537 56.0688 27.4456 55.4172 26.6344 55.6738C24.939 56.2106 22.7493 56.6866 20.0652 57.0951C18.0054 57.4125 16.5477 57.767 15.6921 58.162C14.8365 58.557 14.1774 59.1377 13.7147 59.8973C13.2489 60.6603 13.0175 61.5043 13.0175 62.4328C13.0175 63.8575 13.5246 65.0425 14.5354 65.9946C15.5463 66.9432 17.0294 67.4193 18.9783 67.4193C20.9271 67.4193 22.6257 66.9702 24.1309 66.0688C25.6361 65.1674 26.7389 63.9385 27.4456 62.3754C27.9843 61.1701 28.2537 59.3875 28.2537 57.0344V56.9669Z" fill="#127398"/>
<path d="M46.2784 69.934L38.0012 41.1156C37.7508 40.2479 38.3593 39.3735 39.2117 39.3735H41.7183C42.2887 39.3735 42.7862 39.7786 42.9383 40.3627L47.3907 57.5639L49.1462 64.3296C49.2191 63.992 49.7325 61.828 50.6768 57.8306L55.1292 40.3694C55.2781 39.782 55.7788 39.3735 56.3492 39.3735H59.553C60.1297 39.3735 60.6336 39.7888 60.7793 40.3829L64.9623 57.6517L66.439 63.6747L68.1375 57.5909L72.9384 40.3357C73.0969 39.7617 73.5913 39.3701 74.1521 39.3701H76.3609C77.2133 39.3701 77.8217 40.2513 77.5682 41.1189L69.1136 69.9374C68.9488 70.5012 68.4608 70.8827 67.9062 70.8827H64.601C64.0275 70.8827 63.5268 70.4708 63.3778 69.88L58.9192 52.0102L57.7784 46.6389L52.0395 69.8766C51.8937 70.4674 51.3898 70.8827 50.8163 70.8827H47.4921C46.9375 70.8827 46.4463 70.4944 46.2815 69.9306L46.2784 69.934Z" fill="#127398"/>
<path d="M81.6118 61.2608L84.0424 60.8523C84.6888 60.7443 85.2973 61.1832 85.4652 61.8584C85.8455 63.3945 86.5458 64.6167 87.5662 65.5181C88.8369 66.6457 90.6147 67.2095 92.8995 67.2095C95.1843 67.2095 96.9113 66.7098 98.0236 65.7105C99.1391 64.7112 99.6936 63.5397 99.6936 62.1926C99.6936 60.9873 99.2025 60.0353 98.2169 59.3432C97.5293 58.8672 95.8212 58.2662 93.0928 57.5336C89.4169 56.5444 86.8691 55.6902 85.4462 54.9678C84.0265 54.2453 82.9491 53.2459 82.2139 51.9698C81.4787 50.6936 81.1143 49.2858 81.1143 47.7429C81.1143 46.3384 81.4154 45.0386 82.0206 43.8401C82.6227 42.645 83.4466 41.649 84.486 40.859C85.2656 40.2446 86.3272 39.728 87.674 39.3026C89.0207 38.8772 90.4626 38.6646 92.0059 38.6646C94.3255 38.6646 96.3631 39.019 98.1187 39.7314C99.8743 40.4438 101.167 41.4093 102.004 42.6247C102.622 43.5261 103.1 44.6538 103.433 46.0042C103.626 46.7942 103.145 47.591 102.384 47.699L99.9757 48.0501C99.3546 48.1413 98.7778 47.726 98.5909 47.0879C98.2676 45.9941 97.7004 45.1062 96.8955 44.4174C95.8276 43.5093 94.3192 43.0535 92.3703 43.0535C90.0665 43.0535 88.425 43.4586 87.4395 44.2689C86.4539 45.0791 85.9627 46.0312 85.9627 47.1183C85.9627 47.8104 86.1656 48.435 86.5743 48.9887C86.9831 49.5626 87.6233 50.0386 88.4947 50.4134C88.9954 50.6126 90.4721 51.065 92.9217 51.7773C96.4677 52.7868 98.9426 53.6139 100.343 54.2554C101.744 54.8969 102.847 55.832 103.645 57.0609C104.444 58.2865 104.843 59.8125 104.843 61.6322C104.843 63.4519 104.355 65.0893 103.382 66.6626C102.409 68.2358 101.002 69.4512 99.1613 70.3121C97.3201 71.173 95.2445 71.6018 92.9217 71.6018C89.0778 71.6018 86.1497 70.751 84.1343 69.0495C82.4262 67.6045 81.2411 65.5721 80.5788 62.9455C80.3855 62.169 80.8608 61.3824 81.6055 61.2608H81.6118Z" fill="#127398"/>
<path d="M-0.000183105 21.0534V5.06851C-0.000183105 4.82682 0.182561 4.63548 0.406264 4.63548H1.35779C1.58465 4.63548 1.76424 4.83018 1.76424 5.06851C1.76424 5.44782 2.18644 5.64251 2.44795 5.38404C2.67796 5.15914 2.92057 4.97452 3.17578 4.82346C3.6988 4.51464 4.33526 4.36023 5.08198 4.36023C6.05872 4.36023 6.91888 4.62877 7.6656 5.16249C8.41233 5.69958 8.97632 6.45484 9.35756 7.4283C9.7388 8.40512 9.92785 9.47257 9.92785 10.634C9.92785 11.8794 9.71675 13.0039 9.2977 14.0008C8.87864 14.9978 8.2674 15.7631 7.46711 16.2969C6.66682 16.8272 5.82556 17.0958 4.9402 17.0958C4.2943 17.0958 3.71456 16.9514 3.20098 16.6594C2.98043 16.5352 2.77563 16.3942 2.58974 16.2398C2.32192 16.0216 1.93753 16.223 1.93753 16.5855V21.0534C1.93753 21.2951 1.75479 21.4864 1.53108 21.4864H0.406264C0.17941 21.4864 -0.000183105 21.2917 -0.000183105 21.0534ZM1.75479 10.7951C1.75479 12.3627 2.05411 13.5208 2.6496 14.2727C3.24509 15.0213 3.96662 15.3972 4.81417 15.3972C5.66172 15.3972 6.41475 15.0079 7.026 14.2324C7.6404 13.457 7.94602 12.252 7.94602 10.6239C7.94602 8.99591 7.6467 7.90832 7.04806 7.13627C6.44941 6.36421 5.73104 5.97819 4.89924 5.97819C4.06744 5.97819 3.34277 6.39107 2.70632 7.21012C2.06986 8.03252 1.75479 9.22753 1.75479 10.7951Z" fill="#127398"/>
<path d="M11.5443 10.728C11.5443 8.47226 12.1335 6.80059 13.3119 5.713C14.295 4.81003 15.4954 4.36023 16.9101 4.36023C18.4823 4.36023 19.7678 4.91074 20.7666 6.00504C21.7654 7.1027 22.2632 8.61995 22.2632 10.5534C22.2632 12.121 22.0427 13.3563 21.6016 14.2526C21.1604 15.1522 20.5177 15.8504 19.6733 16.3472C18.8289 16.844 17.9089 17.0924 16.9101 17.0924C15.3095 17.0924 14.0145 16.5453 13.0283 15.451C12.0422 14.3566 11.5475 12.7823 11.5475 10.7246L11.5443 10.728ZM13.5356 10.728C13.5356 12.2889 13.8538 13.457 14.4934 14.2324C15.1331 15.0079 15.9365 15.3972 16.9069 15.3972C17.8774 15.3972 18.6682 15.0079 19.3078 14.2257C19.9474 13.447 20.2656 12.2553 20.2656 10.6575C20.2656 9.15032 19.9443 8.00902 19.3015 7.23361C18.6587 6.4582 17.8616 6.06882 16.9069 6.06882C15.9522 6.06882 15.1331 6.45485 14.4934 7.2269C13.8538 7.99895 13.5356 9.1671 13.5356 10.7246V10.728Z" fill="#127398"/>
<path d="M26.5293 16.4282L23.3312 5.29721C23.2367 4.96824 23.4667 4.63593 23.7881 4.63593H24.7774C24.9917 4.63593 25.1807 4.79034 25.2406 5.01188L26.9641 11.6717L27.6415 14.2866C27.6698 14.1557 27.8683 13.3199 28.2338 11.7724L29.951 5.04209C30.0108 4.80041 30.2156 4.63593 30.4488 4.63593H31.6461C31.8824 4.63593 32.0872 4.80712 32.1471 5.04881L33.7602 11.7019L34.3305 14.0315L34.9859 11.6784L36.8448 5.00181C36.9047 4.78362 37.0937 4.63257 37.308 4.63257H38.1745C38.499 4.63257 38.7321 4.96824 38.6345 5.30056L35.364 16.4483C35.301 16.6665 35.1088 16.8176 34.8914 16.8176H33.6216C33.3979 16.8176 33.2026 16.6565 33.1427 16.4249L31.4192 9.52L30.9781 7.44217L28.7663 16.4014C28.7064 16.6464 28.4985 16.8142 28.2622 16.8142H27.0239C26.7939 16.8142 26.5923 16.6531 26.5261 16.4215L26.5293 16.4282Z" fill="#127398"/>
<path d="M48.6848 12.9468L49.671 13.0777C50.0019 13.1214 50.213 13.4839 50.0932 13.8129C49.7561 14.7494 49.2362 15.4979 48.5368 16.0619C47.6829 16.75 46.5896 17.0958 45.2631 17.0958C43.5901 17.0958 42.2636 16.5486 41.2837 15.451C40.3038 14.3533 39.8123 12.8125 39.8123 10.8321C39.8123 8.85157 40.307 7.18997 41.2995 6.05875C42.2888 4.92752 43.5743 4.36023 45.156 4.36023C46.7377 4.36023 47.935 4.91409 48.9022 6.02518C49.8727 7.13291 50.3547 8.6938 50.3547 10.7079C50.3547 11.0133 50.1216 11.2584 49.838 11.2584H42.3865C42.0746 11.2584 41.8288 11.5538 41.8729 11.8827C42.0115 12.92 42.3455 13.7356 42.8812 14.3332C43.5208 15.0448 44.3179 15.4006 45.2726 15.4006C45.9846 15.4006 46.5896 15.2026 47.0937 14.8031C47.5222 14.4641 47.8751 13.9538 48.1524 13.2724C48.2406 13.0509 48.4611 12.9233 48.6848 12.9502V12.9468ZM42.5125 9.55649H47.7207C48.0389 9.55649 48.2878 9.25438 48.2311 8.9187C48.1083 8.20707 47.8909 7.64985 47.5789 7.2504C46.9614 6.45485 46.1611 6.05875 45.1781 6.05875C44.2864 6.05875 43.5397 6.37764 42.9316 7.01207C42.4526 7.51222 42.1407 8.15001 42.0021 8.9187C41.9422 9.25102 42.1943 9.55984 42.5125 9.55984V9.55649Z" fill="#127398"/>
<path d="M52.7054 16.3069V5.14907C52.7054 4.86374 52.9228 4.63213 53.1907 4.63213H53.9689C54.2367 4.63213 54.4541 4.86374 54.4541 5.14907V6.4817C54.8984 5.61901 55.3111 5.04836 55.6861 4.77311C56.061 4.49786 56.4769 4.36023 56.9306 4.36023C57.4568 4.36023 57.9924 4.50457 58.5343 4.79325C58.7612 4.91409 58.862 5.19942 58.777 5.45118L58.4493 6.39442C58.3516 6.67975 58.0491 6.80395 57.7845 6.69318C57.4568 6.55555 57.1291 6.48841 56.8014 6.49513C56.4927 6.49848 56.1839 6.58576 55.9129 6.74688C55.4592 7.02214 55.1441 7.4518 54.9708 8.03252C54.7566 8.76765 54.6463 9.56992 54.6463 10.4427V16.3069C54.6463 16.5889 54.4321 16.8205 54.1642 16.8205H53.1907C52.926 16.8205 52.7086 16.5922 52.7086 16.3069H52.7054Z" fill="#127398"/>
<path d="M68.2958 12.9468L69.282 13.0777C69.6128 13.1214 69.8239 13.4839 69.7042 13.8129C69.367 14.7494 68.8472 15.4979 68.1477 16.0619C67.2938 16.75 66.2005 17.0958 64.8741 17.0958C63.201 17.0958 61.8745 16.5486 60.8947 15.451C59.9148 14.3533 59.4232 12.8125 59.4232 10.8321C59.4232 8.85157 59.9179 7.18997 60.9104 6.05875C61.8997 4.92752 63.1852 4.36023 64.7669 4.36023C66.3486 4.36023 67.5459 4.91409 68.5132 6.02518C69.4836 7.13291 69.9657 8.6938 69.9657 10.7079C69.9657 11.0133 69.7325 11.2584 69.4489 11.2584H61.9974C61.6855 11.2584 61.4397 11.5538 61.4838 11.8827C61.6225 12.92 61.9565 13.7356 62.4921 14.3332C63.1317 15.0448 63.9288 15.4006 64.8835 15.4006C65.5956 15.4006 66.2005 15.2026 66.7046 14.8031C67.1331 14.4641 67.486 13.9538 67.7633 13.2724C67.8515 13.0509 68.0721 12.9233 68.2958 12.9502V12.9468ZM62.1234 9.55649H67.3316C67.6499 9.55649 67.8988 9.25438 67.8421 8.9187C67.7192 8.20707 67.5018 7.64985 67.1899 7.2504C66.5723 6.45485 65.772 6.05875 64.789 6.05875C63.8973 6.05875 63.1506 6.37764 62.5425 7.01207C62.0636 7.51222 61.7517 8.15001 61.613 8.9187C61.5532 9.25102 61.8052 9.55984 62.1234 9.55984V9.55649Z" fill="#127398"/>
<path d="M79.755 16.3138V15.28C79.0713 16.4179 78.0883 17.0188 76.7996 17.0859C75.9332 17.1295 75.0636 16.9214 74.3105 16.4649C73.4157 15.9211 72.732 15.1155 72.2657 14.048C71.8466 13.088 71.6355 11.9836 71.6355 10.7383C71.6355 9.49291 71.8246 8.41874 72.2058 7.4285C72.5871 6.43826 73.1573 5.67963 73.9167 5.15262C74.6792 4.62561 75.5299 4.36043 76.4688 4.36043C77.1588 4.36043 77.7732 4.51484 78.3088 4.82366C78.8445 5.13248 79.2856 5.53529 79.6227 6.03545V0.520297C79.6227 0.231616 79.8432 0 80.1111 0H81.0594C81.3304 0 81.5478 0.234973 81.5478 0.520297V16.3138C81.5478 16.5924 81.3367 16.8173 81.0752 16.8173H80.2245C79.963 16.8173 79.7519 16.5924 79.7519 16.3138H79.755ZM73.6268 10.7383C73.6268 12.2992 73.9356 13.4639 74.5531 14.236C75.1707 15.0081 75.8985 15.3941 76.7398 15.3941C77.581 15.3941 78.3057 15.0248 78.898 14.2864C79.4904 13.5479 79.7865 12.4234 79.7865 10.9061C79.7865 9.23779 79.4841 8.01593 78.8823 7.23381C78.2805 6.45168 77.5369 6.0623 76.6515 6.0623C75.7662 6.0623 75.0698 6.43826 74.4933 7.18681C73.9167 7.93537 73.6268 9.11695 73.6268 10.7315V10.7383Z" fill="#127398"/>
<path d="M92.1282 16.8207H91.1074C90.8931 16.8207 90.7198 16.6361 90.7198 16.4078V0.412881C90.7198 0.184622 90.8931 0 91.1074 0H92.2668C92.4811 0 92.6544 0.184622 92.6544 0.412881V4.98143C92.6544 5.3406 93.0451 5.51851 93.3034 5.29025C94.0029 4.66925 94.8316 4.36043 95.7894 4.36043C96.492 4.36043 97.16 4.51148 97.787 4.81359C98.414 5.1157 98.9307 5.542 99.3371 6.0858C99.7436 6.63295 100.062 7.29087 100.289 8.06629C100.519 8.83834 100.632 9.6641 100.632 10.5436C100.632 12.6315 100.147 14.2461 99.1796 15.384C98.2092 16.5253 97.0465 17.0926 95.6917 17.0926C94.6898 17.0926 93.8485 16.7636 93.168 16.099C92.9159 15.854 92.5158 16.0386 92.5158 16.4011C92.5158 16.6294 92.3425 16.814 92.1282 16.814V16.8207ZM92.4968 10.6376C92.4968 12.0977 92.6827 13.1551 93.0577 13.803C93.6689 14.8671 94.4944 15.3974 95.5342 15.3974C96.3817 15.3974 97.1127 15.0047 97.7302 14.2226C98.3478 13.4371 98.6566 12.2689 98.6566 10.7181C98.6566 9.1673 98.3604 7.95216 97.7681 7.19689C97.1757 6.44162 96.4605 6.0623 95.6192 6.0623C94.778 6.0623 94.0407 6.45504 93.4232 7.23717C92.8056 8.02265 92.4968 9.15387 92.4968 10.6376Z" fill="#127398"/>
<path d="M102.844 20.9128L102.825 20.7551C102.765 20.2079 103.178 19.7313 103.695 19.7514C103.732 19.7514 103.767 19.7514 103.802 19.7514C104.233 19.7514 104.577 19.6742 104.835 19.5231C105.094 19.3687 105.305 19.1573 105.472 18.882C105.595 18.6739 105.79 18.1637 106.064 17.3446C106.08 17.2909 106.102 17.2238 106.13 17.1466C106.199 16.9452 106.196 16.7236 106.124 16.5256L102.33 5.85107C102.122 5.26364 102.529 4.63257 103.118 4.63257H103.392C103.748 4.63257 104.066 4.8709 104.186 5.22671L106.366 11.6885C106.376 11.712 106.382 11.7388 106.392 11.7623C106.666 12.5612 107.712 12.5579 107.983 11.7623L107.992 11.7355L110.232 5.22336C110.355 4.8709 110.67 4.63257 111.023 4.63257H111.156C111.745 4.63257 112.151 5.26028 111.946 5.84771L108.021 17.0257C107.554 18.3651 107.192 19.2848 106.934 19.7917C106.59 20.4731 106.193 20.9699 105.749 21.2888C105.305 21.6077 104.772 21.7655 104.155 21.7655C103.956 21.7655 103.745 21.742 103.521 21.695C103.159 21.6178 102.882 21.3056 102.841 20.9162L102.844 20.9128Z" fill="#127398"/>
<path d="M7.72743 90.6972C8.07925 90.3825 8.79285 90.1491 10.6084 91.2948C11.7767 92.0338 12.4903 92.833 14.3523 93.9999C18.1626 96.3867 33.0187 104.788 53.3779 105.057C56.219 105.096 58.3134 104.983 59.8103 104.902C74.5469 104.092 85.7156 99.7212 88.8953 98.519C90.0271 98.0911 90.359 97.7516 92.1115 96.9631C93.6216 96.2842 94.239 96.0791 94.8895 96.3407C95.6894 96.6625 96.3632 97.6279 96.2039 98.3634C96.0147 99.258 94.7169 99.8485 94.3054 100.153C91.5273 102.214 89.6719 103.091 86.323 105.107C80.6408 108.53 69.0406 111.143 59.8136 111.751C55.9303 112.009 49.5212 112.391 41.25 110.973C20.4727 107.409 7.85355 95.7219 7.19306 92.2884C7.10012 91.8004 7.17646 91.1958 7.73075 90.6972H7.72743Z" fill="#127398"/>
<path d="M104.216 90.2303C104.216 90.2303 104.206 90.2055 104.199 90.1914V90.1843C103.977 89.7847 102.5 89.4099 101.587 89.2048C97.8202 88.3632 95.1649 87.7692 91.2916 88.6709C88.5799 89.3038 87.4083 90.1702 86.6947 91.1567C86.5984 91.2911 85.7122 92.5358 86.0508 93.0202C86.3495 93.4481 87.4049 93.0202 88.3907 92.748C91.3414 91.9276 96.4295 91.7048 98.8225 93.9467C98.879 93.9997 98.9387 94.0563 99.0051 94.12C99.0416 94.2119 99.0781 94.2968 99.108 94.3746C100.343 97.504 98.5271 102.575 96.861 105.294C96.3034 106.203 95.5864 107.136 95.8752 107.571C96.2005 108.066 97.5879 107.571 97.7372 107.511C98.8425 107.104 99.9842 106.196 101.408 103.657C103.439 100.032 103.755 97.161 104.203 93.0874C104.302 92.168 104.428 90.7041 104.213 90.2303H104.216Z" fill="#127398"/>
</svg>
