<svg width="259" height="50" viewBox="0 0 259 50" fill="none" xmlns="http://www.w3.org/2000/svg">
<g clip-path="url(#clip0_0_2855)">
<path d="M4.31836 38.0237C4.42785 38.1403 4.54757 38.2478 4.67138 38.3521C4.54655 38.2488 4.42887 38.1403 4.31836 38.0237Z" fill="#00AAE1"/>
<path d="M4.74805 38.4194C4.89744 38.5371 5.05502 38.6466 5.22284 38.7438C5.05502 38.6466 4.89744 38.5371 4.74805 38.4194Z" fill="#00AAE1"/>
<path d="M44.7842 38.7438C44.952 38.6466 45.1096 38.5381 45.259 38.4194C45.1096 38.5371 44.952 38.6466 44.7842 38.7438Z" fill="#00AAE1"/>
<path d="M38.5586 19.4974C38.5586 19.3316 38.5463 19.1668 38.5259 19.0042C38.5463 19.1668 38.5586 19.3306 38.5586 19.4974Z" fill="#00AAE1"/>
<path d="M37.8339 17.2064C37.8339 17.2064 37.8277 17.1982 37.8257 17.1931C37.8288 17.1972 37.8318 17.2013 37.8339 17.2064Z" fill="#00AAE1"/>
<path d="M12.9849 16.3367C12.9583 16.3582 12.9348 16.3827 12.9082 16.4042C12.9348 16.3827 12.9583 16.3582 12.9849 16.3367Z" fill="#00AAE1"/>
<path d="M37.0982 16.4042C37.0716 16.3827 37.0481 16.3582 37.0215 16.3367C37.0481 16.3582 37.0716 16.3817 37.0982 16.4042Z" fill="#00AAE1"/>
<path d="M37.4931 16.7805C37.4788 16.7651 37.4665 16.7487 37.4512 16.7334C37.4655 16.7487 37.4788 16.7651 37.4931 16.7805Z" fill="#00AAE1"/>
<path d="M38.3159 18.1425C38.3128 18.1322 38.3098 18.123 38.3057 18.1128C38.3098 18.122 38.3118 18.1322 38.3159 18.1425Z" fill="#00AAE1"/>
<path d="M38.3057 31.8861C38.3087 31.8779 38.3108 31.8698 38.3138 31.8616C38.3108 31.8698 38.3087 31.8779 38.3057 31.8861Z" fill="#00AAE1"/>
<path d="M38.4686 18.689C38.4584 18.6409 38.4512 18.5917 38.4399 18.5447C38.4522 18.5917 38.4584 18.6409 38.4686 18.689Z" fill="#00AAE1"/>
<path d="M38.4399 31.4541C38.4512 31.409 38.4584 31.362 38.4676 31.3159C38.4573 31.362 38.4512 31.408 38.4399 31.4541Z" fill="#00AAE1"/>
<path d="M38.5269 30.9948C38.5463 30.8331 38.5596 30.6704 38.5596 30.5046C38.5596 30.6704 38.5473 30.8331 38.5269 30.9948Z" fill="#00AAE1"/>
<path d="M4.27631 37.9754C4.15659 37.8454 4.04608 37.7073 3.9458 37.563C4.04608 37.7073 4.15762 37.8444 4.27631 37.9754Z" fill="#00AAE1"/>
<path d="M46.3618 12.9404L46.3664 12.9485C46.3664 12.9485 46.363 12.9439 46.3618 12.9404Z" fill="#00AAE1"/>
<path d="M45.3364 38.3509C45.4602 38.2476 45.58 38.1401 45.6895 38.0225C45.5789 38.1391 45.4613 38.2476 45.3364 38.3509Z" fill="#00AAE1"/>
<path d="M46.3612 37.0585L38.125 32.3035L46.3612 37.0585Z" fill="#00AAE1"/>
<path d="M46.0713 12.4514C46.0867 12.475 46.0969 12.4985 46.1112 12.521C46.0969 12.4985 46.0857 12.4739 46.0703 12.4514H46.0713Z" fill="#00AAE1"/>
<path d="M25.523 39.9963C25.3501 40.0188 25.1772 40.0301 25.0032 40.0301C24.8293 40.0301 24.6563 40.0188 24.4834 39.9963C24.8282 40.0414 25.1782 40.0414 25.523 39.9963Z" fill="#00AAE1"/>
<path d="M12.5556 16.7327C12.5413 16.748 12.528 16.7644 12.5137 16.7797C12.528 16.7644 12.5403 16.748 12.5556 16.7327Z" fill="#00AAE1"/>
<path d="M27.0162 0.998008C26.393 0.638845 25.6982 0.458752 25.0034 0.458752C24.3086 0.458752 23.6138 0.638845 22.9917 0.998008L5.22284 11.2562C5.05502 11.3534 4.89744 11.4618 4.74805 11.5805C4.89744 11.4629 5.05502 11.3534 5.22284 11.2562L22.9917 0.998008C24.237 0.278659 25.7709 0.278659 27.0162 0.998008L44.785 11.2562C44.9528 11.3534 45.1104 11.4629 45.2598 11.5805C45.1104 11.4618 44.9528 11.3534 44.785 11.2562L27.0162 0.998008Z" fill="#00AAE1"/>
<path d="M12.182 17.1931C12.182 17.1931 12.1759 17.2013 12.1738 17.2064C12.1769 17.2023 12.18 17.1982 12.182 17.1931Z" fill="#00AAE1"/>
<path d="M11.883 17.6966C11.6068 18.2471 11.4482 18.8601 11.4482 19.4976V30.5027C11.4482 31.1402 11.6068 31.7521 11.883 32.3036L3.64582 37.0597C3.73075 37.2296 3.82796 37.3923 3.9354 37.5488C3.47596 36.8858 3.21094 36.0927 3.21094 35.2588V14.7415C3.21094 13.9075 3.47596 13.1145 3.9354 12.4514C3.82796 12.608 3.73075 12.7717 3.64582 12.9416L11.883 17.6977V17.6966Z" fill="#009BCC"/>
<path d="M46.3618 37.0595C46.3618 37.0595 46.3659 37.0534 46.367 37.0493C46.281 37.2222 46.1828 37.389 46.0723 37.5487C46.1797 37.3921 46.2769 37.2294 46.3618 37.0595Z" fill="#00AAE1"/>
<path d="M46.582 13.4703C46.5268 13.3087 46.4643 13.149 46.3896 12.9966C46.4633 13.1501 46.5278 13.3077 46.582 13.4703Z" fill="#00AAE1"/>
<path d="M37.8247 32.8068C37.8247 32.8068 37.8308 32.7975 37.8339 32.7935C37.8308 32.7975 37.8278 32.8027 37.8247 32.8068Z" fill="#00AAE1"/>
<path d="M46.7242 14.027C46.6955 13.8725 46.6618 13.719 46.6157 13.5696C46.6618 13.719 46.6966 13.8714 46.7242 14.027Z" fill="#00AAE1"/>
<path d="M45.6895 11.9764C45.58 11.8598 45.4603 11.7513 45.3354 11.6479C45.4603 11.7513 45.579 11.8598 45.6895 11.9764Z" fill="#00AAE1"/>
<path d="M46.062 12.437C45.9617 12.2928 45.8501 12.1556 45.7314 12.0247C45.8512 12.1556 45.9617 12.2928 46.062 12.437Z" fill="#00AAE1"/>
<path d="M46.3608 12.9404C46.2759 12.7716 46.1787 12.6089 46.0723 12.4534C46.1797 12.6089 46.2759 12.7716 46.3608 12.9404Z" fill="#00AAE1"/>
<path d="M46.3882 37.0053C46.4639 36.8507 46.5273 36.6901 46.5826 36.5264C46.5284 36.6901 46.4629 36.8497 46.3882 37.0053Z" fill="#00AAE1"/>
<path d="M45.7314 37.9754C45.8501 37.8444 45.9617 37.7083 46.062 37.563C45.9607 37.7073 45.8512 37.8444 45.7314 37.9754Z" fill="#00AAE1"/>
<path d="M46.7956 35.2585C46.7956 35.4571 46.7782 35.6525 46.7495 35.8459C46.7782 35.6535 46.7956 35.4571 46.7956 35.2585Z" fill="#00AAE1"/>
<path d="M46.6157 36.4314C46.6618 36.2809 46.6966 36.1275 46.7252 35.9719C46.6976 36.1275 46.6618 36.2809 46.6157 36.4314Z" fill="#00AAE1"/>
<path d="M46.7956 14.7403C46.7956 14.5418 46.7782 14.3464 46.7495 14.155C46.7782 14.3474 46.7956 14.5428 46.7956 14.7403Z" fill="#00AAE1"/>
<path d="M12.9082 33.5959C12.9348 33.6174 12.9583 33.643 12.986 33.6645C12.9594 33.643 12.9348 33.6185 12.9082 33.5959Z" fill="#00AAE1"/>
<path d="M37.4521 33.2673C37.4665 33.252 37.4798 33.2346 37.4941 33.2192C37.4798 33.2346 37.4665 33.252 37.4521 33.2673Z" fill="#00AAE1"/>
<path d="M12.5137 33.2192C12.528 33.2346 12.5413 33.252 12.5556 33.2673C12.5413 33.252 12.528 33.2346 12.5137 33.2192Z" fill="#00AAE1"/>
<path d="M37.0215 33.6633C37.0491 33.6418 37.0726 33.6172 37.0993 33.5947C37.0726 33.6172 37.0491 33.6418 37.0215 33.6633Z" fill="#00AAE1"/>
<path d="M4.67143 11.6479C4.54762 11.7513 4.42789 11.8598 4.31738 11.9764C4.42789 11.8598 4.54659 11.7513 4.67143 11.6479Z" fill="#00AAE1"/>
<path d="M4.27631 12.0247C4.15762 12.1556 4.04608 12.2928 3.9458 12.437C4.0471 12.2928 4.15659 12.1556 4.27631 12.0247Z" fill="#00AAE1"/>
<path d="M23.4707 39.7263C23.7981 39.8614 24.1389 39.9514 24.4837 39.9954C24.1389 39.9504 23.7981 39.8604 23.4707 39.7263Z" fill="#00AAE1"/>
<path d="M12.1729 32.7935C12.1729 32.7935 12.179 32.8027 12.1821 32.8068C12.179 32.8027 12.1759 32.7975 12.1729 32.7935Z" fill="#00AAE1"/>
<path d="M46.3608 12.9415L38.1246 17.6965C38.0397 17.5267 37.9425 17.3629 37.834 17.2064C37.831 17.2023 37.8279 17.1982 37.8258 17.1931C37.7256 17.0478 37.613 16.9107 37.4943 16.7797C37.48 16.7643 37.4677 16.748 37.4524 16.7326C37.3429 16.616 37.2232 16.5075 37.0983 16.4042C37.0717 16.3827 37.0482 16.3581 37.0216 16.3366C36.8722 16.2179 36.7146 16.1095 36.5468 16.0122L27.0151 10.5092C26.393 10.15 25.6982 9.96991 25.0034 9.96991V0.45874C25.6982 0.45874 26.393 0.638833 27.0151 0.997997L44.784 11.2561C44.9518 11.3534 45.1094 11.4618 45.2588 11.5805C45.2854 11.602 45.3089 11.6266 45.3355 11.6481C45.4593 11.7514 45.5791 11.8599 45.6896 11.9765C45.7039 11.9919 45.7172 12.0093 45.7315 12.0246C45.8502 12.1556 45.9618 12.2927 46.062 12.437C46.0651 12.4421 46.0682 12.4462 46.0712 12.4513C46.0866 12.4738 46.0979 12.4984 46.1122 12.5209C46.2022 12.657 46.2872 12.7961 46.3608 12.9415Z" fill="#007296"/>
<path d="M46.362 12.9404L46.3608 12.9416L46.362 12.9404Z" fill="#00AAE1"/>
<path d="M22.9917 0.997997C23.6138 0.638833 24.3086 0.45874 25.0034 0.45874V9.96991C24.3086 9.96991 23.6138 10.15 22.9917 10.5092L13.4601 16.0122C13.2922 16.1095 13.1347 16.2179 12.9853 16.3366C12.9587 16.3581 12.9351 16.3816 12.9085 16.4042C12.7847 16.5075 12.664 16.616 12.5545 16.7326C12.5401 16.748 12.5268 16.7643 12.5125 16.7797C12.3938 16.9107 12.2813 17.0478 12.181 17.1931C12.1779 17.1972 12.1748 17.2013 12.1728 17.2064C12.0654 17.3629 11.9681 17.5267 11.8822 17.6965L3.646 12.9404C3.73093 12.7706 3.82814 12.6068 3.93558 12.4503C3.93865 12.4452 3.94172 12.4411 3.94479 12.436C4.04507 12.2917 4.1566 12.1546 4.2753 12.0236C4.28962 12.0082 4.30293 11.9908 4.31725 11.9755C4.42674 11.8588 4.54646 11.7504 4.6713 11.647C4.6979 11.6255 4.72144 11.601 4.74804 11.5795C4.89744 11.4608 5.05502 11.3523 5.22283 11.2551L22.9917 0.997997Z" fill="#008DBA"/>
<path d="M25.0034 40.0301C25.1774 40.0301 25.3503 40.0189 25.5232 39.9964C26.041 39.9288 26.5485 39.76 27.0151 39.4909L36.5468 33.9878C36.7146 33.8906 36.8722 33.7821 37.0216 33.6634C37.0482 33.6419 37.0727 33.6174 37.0993 33.5949C37.2232 33.4915 37.3429 33.3841 37.4524 33.2664C37.4667 33.251 37.48 33.2337 37.4943 33.2183C37.613 33.0873 37.7245 32.9502 37.8259 32.8059C37.8289 32.8018 37.832 32.7967 37.8351 32.7926C37.9425 32.6361 38.0397 32.4724 38.1257 32.3025L46.3619 37.0576C46.2759 37.2264 46.1807 37.3911 46.0723 37.5477C46.0692 37.5528 46.0661 37.5569 46.0631 37.562C46.0661 37.5569 46.0692 37.5528 46.0723 37.5477C46.1797 37.3911 46.2769 37.2284 46.3619 37.0586C46.2769 37.2284 46.1797 37.3922 46.0723 37.5477C46.0692 37.5528 46.0661 37.5569 46.0631 37.562C45.9628 37.7063 45.8513 37.8434 45.7326 37.9744C45.7182 37.9898 45.7049 38.0071 45.6906 38.0225C45.5811 38.1391 45.4614 38.2466 45.3376 38.351C45.311 38.3735 45.2874 38.398 45.2598 38.4195C45.1104 38.5372 44.9528 38.6467 44.785 38.7439L27.0162 49.002C26.5496 49.2712 26.042 49.44 25.5243 49.5075C25.3513 49.53 25.1784 49.5413 25.0044 49.5413V40.0301H25.0034Z" fill="#3BBFEF"/>
<path d="M3.93558 37.5487C3.82814 37.3921 3.73093 37.2294 3.646 37.0596L11.8832 32.3035C11.9681 32.4733 12.0654 32.637 12.1738 32.7936C12.1769 32.7977 12.18 32.8028 12.183 32.8069C12.2833 32.9512 12.3948 33.0883 12.5146 33.2193C12.5289 33.2346 12.5422 33.252 12.5565 33.2674C12.666 33.384 12.7857 33.4915 12.9095 33.5958C12.9361 33.6184 12.9597 33.6429 12.9873 33.6644C13.1367 33.7821 13.2943 33.8916 13.4621 33.9888L15.2722 35.0335L12.5013 41.6069L21.4149 38.5801L22.9937 39.4918C23.1493 39.5819 23.3099 39.6607 23.4726 39.7282C23.8001 39.8633 24.1408 39.9533 24.4856 39.9973C24.6586 40.0198 24.8315 40.0311 25.0055 40.0311V49.5423C24.4846 49.5423 23.9638 49.441 23.4726 49.2394C23.3089 49.1719 23.1493 49.0931 22.9937 49.003L5.22284 38.7438C5.05502 38.6466 4.89744 38.5382 4.74804 38.4195C4.72144 38.398 4.69688 38.3734 4.67028 38.3509C4.54646 38.2476 4.42674 38.1401 4.31725 38.0225C4.30293 38.0071 4.28962 37.9897 4.2753 37.9744C4.1566 37.8434 4.04507 37.7073 3.94479 37.562C3.94172 37.5569 3.93865 37.5528 3.93558 37.5477V37.5487Z" fill="#00AAE1"/>
<path d="M38.125 32.3035C38.1925 32.1674 38.2539 32.0282 38.3071 31.886C38.3102 31.8778 38.3123 31.8696 38.3153 31.8614C38.3634 31.7284 38.4054 31.5933 38.4402 31.4552C38.4514 31.4102 38.4586 31.3631 38.4678 31.3171C38.4903 31.2106 38.5128 31.1042 38.5271 30.9958C38.5476 30.8341 38.5599 30.6714 38.5599 30.5056V19.4974C38.5599 19.3306 38.5476 19.1669 38.5271 19.0042C38.5138 18.8978 38.4913 18.7934 38.4688 18.689C38.4586 18.6409 38.4514 18.5918 38.4402 18.5448C38.4054 18.4087 38.3644 18.2746 38.3163 18.1426C38.3133 18.1324 38.3102 18.1232 38.3061 18.1129C38.2529 17.9717 38.1936 17.8326 38.126 17.6985V17.6965L46.3622 12.9414C46.3622 12.9414 46.3653 12.9465 46.3663 12.9486C46.3745 12.9649 46.3827 12.9813 46.3909 12.9977C46.4656 13.1512 46.528 13.3098 46.5832 13.4715C46.5945 13.5042 46.6068 13.5369 46.617 13.5707C46.6631 13.7201 46.6978 13.8726 46.7255 14.0281C46.7337 14.0711 46.7449 14.112 46.7511 14.156C46.7797 14.3484 46.7971 14.5438 46.7971 14.7413V35.2597C46.7971 35.4582 46.7797 35.6536 46.7511 35.847C46.7449 35.89 46.7337 35.9309 46.7255 35.9729C46.6968 36.1284 46.662 36.2829 46.616 36.4323C46.6058 36.4651 46.5945 36.4958 46.5832 36.5285C46.528 36.6922 46.4645 36.8529 46.3888 37.0074C46.3817 37.0217 46.3745 37.0371 46.3673 37.0514C46.3653 37.0545 46.3632 37.0575 46.3622 37.0606L38.126 32.3055L38.125 32.3035Z" fill="#66CDF5"/>
<path d="M46.3618 37.0586C46.2769 37.2285 46.1797 37.3922 46.0723 37.5478C46.1807 37.3922 46.2759 37.2275 46.3618 37.0576V37.0586Z" fill="#00AAE1"/>
<path d="M46.3608 12.9415C46.2871 12.7962 46.2032 12.657 46.1122 12.5209C46.0978 12.4994 46.0866 12.4749 46.0723 12.4534C46.1797 12.6089 46.2759 12.7716 46.3608 12.9404V12.9415Z" fill="#00AAE1"/>
<path d="M46.062 37.5629C46.062 37.5629 46.0682 37.5537 46.0712 37.5486L46.062 37.5629Z" fill="#00AAE1"/>
</g>
<path d="M67.2402 38.1328C61.3516 38.1328 57.6074 35.2324 57.291 30.8555L57.2734 30.6094H61.668L61.6855 30.7852C61.8965 32.9121 64.1641 34.3184 67.3809 34.3184C70.4395 34.3184 72.584 32.8066 72.584 30.627V30.6094C72.584 28.7812 71.2656 27.6738 67.9961 26.9707L65.2715 26.4082C60.0859 25.3184 57.8359 22.8926 57.8359 19.1133V19.0957C57.8359 14.5605 61.7383 11.502 67.2227 11.502C72.8477 11.502 76.3457 14.5781 76.6621 18.6562L76.6797 18.8848H72.3379L72.3027 18.6738C71.9863 16.7051 70.1055 15.2988 67.2051 15.3164C64.3926 15.3164 62.3887 16.6348 62.3887 18.7969V18.8145C62.3887 20.6074 63.6719 21.7324 66.8359 22.4004L69.5605 22.9805C74.9043 24.1055 77.1367 26.25 77.1367 30.082V30.0996C77.1367 35.0391 73.3223 38.1328 67.2402 38.1328ZM89.3359 37.5879C84.9238 37.5879 83.1133 36.1113 83.1133 32.4023V21.6797H80.125V18.2871H83.1133V13.5762H87.5605V18.2871H91.6211V21.6797H87.5605V31.3652C87.5605 33.2812 88.3164 34.0898 90.1445 34.0898C90.7598 34.0898 91.0938 34.0723 91.6211 34.0195V37.3945C90.9883 37.5176 90.1797 37.5879 89.3359 37.5879ZM104.102 37.8867C98.3359 37.8867 94.8555 34.125 94.8555 27.9023V27.8672C94.8555 21.6973 98.3887 17.918 104.102 17.918C109.832 17.918 113.348 21.6797 113.348 27.8672V27.9023C113.348 34.125 109.85 37.8867 104.102 37.8867ZM104.102 34.3359C107.143 34.3359 108.865 31.9629 108.865 27.9199V27.8848C108.865 23.8418 107.125 21.4512 104.102 21.4512C101.061 21.4512 99.3203 23.8418 99.3203 27.8848V27.9199C99.3203 31.9629 101.061 34.3359 104.102 34.3359ZM125.986 37.8867C120.203 37.8867 116.793 34.1426 116.793 27.8672V27.832C116.793 21.627 120.186 17.918 125.969 17.918C130.908 17.918 133.861 20.6602 134.354 24.6328V24.7031H130.223L130.205 24.6504C129.801 22.7871 128.377 21.4512 125.986 21.4512C122.998 21.4512 121.24 23.8066 121.24 27.832V27.8672C121.24 31.9453 123.016 34.3359 125.986 34.3359C128.254 34.3359 129.643 33.2988 130.188 31.2773L130.223 31.207L134.354 31.1895L134.318 31.3301C133.686 35.2676 130.855 37.8867 125.986 37.8867ZM138.695 37.5V10.8516H143.072V26.1621H143.371L150.455 18.2871H155.518L147.783 26.4082L156.045 37.5H150.771L144.602 29.1855L143.072 30.75V37.5H138.695Z" fill="#179CCE"/>
<path d="M170.16 38.1328C162.971 38.1328 158.506 33.0352 158.506 24.8438V24.8086C158.506 16.582 162.953 11.502 170.143 11.502C175.908 11.502 180.285 15.1582 180.883 20.3438V20.4844H176.436L176.418 20.4141C175.768 17.4082 173.342 15.4219 170.143 15.4219C165.836 15.4219 163.146 19.0254 163.146 24.791V24.8262C163.146 30.6094 165.836 34.2129 170.16 34.2129C173.377 34.2129 175.768 32.4199 176.418 29.625L176.436 29.5371H180.883V29.6602C180.215 34.7402 176.014 38.1328 170.16 38.1328ZM185.664 37.5V10.8516H190.041V37.5H185.664ZM201.941 37.8867C197.617 37.8867 195.402 35.2852 195.402 30.7148V18.2871H199.779V29.7129C199.779 32.6836 200.887 34.1953 203.523 34.1953C206.354 34.1953 207.865 32.3672 207.865 29.4844V18.2871H212.242V37.5H207.865V34.582H207.566C206.67 36.6387 204.719 37.8867 201.941 37.8867ZM228.273 37.8164C225.584 37.8164 223.492 36.5859 222.438 34.4941H222.139V37.5H217.762V10.8516H222.139V21.3457H222.438C223.439 19.2715 225.637 17.9707 228.273 17.9707C233.143 17.9707 236.166 21.7676 236.166 27.8848V27.9199C236.166 34.002 233.09 37.8164 228.273 37.8164ZM226.902 34.125C229.891 34.125 231.701 31.7871 231.701 27.9199V27.8848C231.701 24.0176 229.891 21.6621 226.902 21.6621C223.932 21.6621 222.086 24.0352 222.086 27.8848V27.9199C222.086 31.7695 223.932 34.125 226.902 34.125ZM247.803 37.8867C242.916 37.8867 239.963 35.6367 239.594 32.3848V32.3496H243.936L243.953 32.3848C244.41 33.7207 245.693 34.6523 247.873 34.6523C250.053 34.6523 251.564 33.668 251.564 32.2266V32.1914C251.564 31.0664 250.721 30.3281 248.611 29.8535L245.5 29.1504C241.844 28.3418 240.104 26.6191 240.104 23.7891V23.7715C240.104 20.3086 243.268 17.918 247.803 17.918C252.479 17.918 255.273 20.2383 255.555 23.3496V23.3848H251.441L251.424 23.332C251.107 22.1191 249.842 21.1348 247.785 21.1348C245.834 21.1348 244.428 22.084 244.428 23.5254V23.543C244.428 24.668 245.236 25.3535 247.311 25.8281L250.422 26.5137C254.184 27.3574 255.959 28.957 255.959 31.752V31.7871C255.959 35.4434 252.531 37.8867 247.803 37.8867Z" fill="#127398"/>
<defs>
<clipPath id="clip0_0_2855">
<rect width="43.5846" height="49.0826" fill="white" transform="translate(3.21094 0.45874)"/>
</clipPath>
</defs>
</svg>
